<svg width="522" height="227" viewBox="0 0 522 227" fill="none" xmlns="http://www.w3.org/2000/svg">
<path d="M0 226H522M0 1H522" stroke="#BE9778" stroke-width="2"/>
<g clip-path="url(#clip0)">
<path d="M140.636 94.5305C140.636 104.712 140.636 113.033 141.128 117.381C141.501 120.488 141.873 122.475 145.12 122.968C146.762 123.23 148.417 123.397 150.077 123.468C150.192 123.465 150.307 123.484 150.414 123.527C150.521 123.569 150.618 123.632 150.699 123.713C150.781 123.795 150.845 123.892 150.888 123.998C150.931 124.105 150.952 124.22 150.949 124.335C150.949 124.835 150.45 125.208 149.212 125.208C143.138 125.208 136.071 124.835 135.579 124.835C134.96 124.835 128.14 125.208 124.793 125.208C123.682 125.208 123.063 124.955 123.063 124.335C123.06 124.22 123.08 124.106 123.122 123.999C123.164 123.892 123.227 123.795 123.309 123.714C123.39 123.633 123.486 123.569 123.593 123.527C123.7 123.484 123.814 123.464 123.928 123.468C125.052 123.425 126.168 123.257 127.255 122.968C129.364 122.475 129.737 120.488 130.103 117.381C130.602 113.033 130.728 104.712 130.728 94.5305V75.901C130.728 59.5052 130.728 56.5247 130.476 53.1776C130.229 49.5704 129.364 47.9568 127.009 47.4634C125.913 47.241 124.8 47.1161 123.682 47.09C123.456 47.0744 123.243 46.9774 123.083 46.8169C122.923 46.6563 122.826 46.443 122.811 46.2165C122.811 45.5964 123.31 45.3497 124.547 45.3497C128.14 45.3497 134.96 45.5964 135.579 45.5964C136.071 45.5964 143.138 45.3497 146.484 45.3497C147.722 45.3497 148.221 45.5964 148.221 46.2165C148.185 46.4351 148.082 46.637 147.925 46.7936C147.769 46.9503 147.568 47.0539 147.349 47.09C146.436 47.07 145.523 47.1527 144.628 47.3367C141.654 47.9568 141.028 49.4503 140.782 53.1776C140.662 56.5114 140.662 59.5052 140.662 75.901L140.636 94.5305Z" fill="#BE9778"/>
<path d="M181.037 110.8C181.283 119.468 182.275 122.135 185.249 122.848C187.039 123.246 188.865 123.453 190.698 123.468C190.813 123.465 190.927 123.486 191.033 123.528C191.14 123.571 191.237 123.635 191.318 123.716C191.4 123.796 191.464 123.893 191.507 123.999C191.55 124.106 191.572 124.22 191.57 124.335C191.57 124.955 190.825 125.208 189.574 125.208C183.379 125.208 179.041 124.835 178.049 124.835C177.058 124.835 172.474 125.208 167.51 125.208C166.399 125.208 165.78 125.082 165.78 124.335C165.777 124.22 165.798 124.106 165.84 124C165.883 123.894 165.946 123.797 166.027 123.716C166.108 123.635 166.205 123.571 166.311 123.529C166.417 123.486 166.531 123.465 166.645 123.468C168.16 123.465 169.667 123.263 171.13 122.868C173.851 122.121 174.224 119.267 174.224 109.699V49.1969C174.224 44.9763 174.842 43.8628 175.714 43.8628C176.952 43.8628 178.808 45.9698 179.926 47.0899C181.662 48.8302 197.525 65.7194 214.379 83.0953C225.164 94.277 236.808 106.819 240.155 110.299L239.044 57.3915C238.917 50.5571 238.299 48.1968 234.952 47.5767C233.193 47.2755 231.413 47.1105 229.629 47.0833C228.884 47.0833 228.764 46.4632 228.764 46.0898C228.764 45.4697 229.629 45.343 230.866 45.343C235.823 45.343 241.033 45.5897 242.271 45.5897C243.508 45.5897 247.101 45.343 251.586 45.343C252.704 45.343 253.582 45.4697 253.582 46.0898C253.526 46.375 253.371 46.6311 253.144 46.8128C252.918 46.9946 252.635 47.0904 252.345 47.0833C251.471 47.0734 250.599 47.1561 249.743 47.33C246.143 48.0768 245.897 50.1837 245.897 56.518L245.651 118.367C245.651 125.322 245.525 125.942 244.786 125.942C243.668 125.942 242.55 125.075 236.482 119.488C235.364 118.494 219.622 102.972 208.098 90.9232C195.456 77.6346 183.186 64.7193 179.839 60.992L181.037 110.8Z" fill="#BE9778"/>
<path d="M329.261 98.2577C329.261 89.6898 329.008 88.4429 324.55 87.5895C323.316 87.4402 322.074 87.3579 320.831 87.3427C320.613 87.3063 320.413 87.2025 320.258 87.0457C320.103 86.889 320.001 86.6873 319.966 86.4693C319.966 85.7292 320.458 85.6025 321.696 85.6025C326.653 85.6025 333.965 85.8492 334.584 85.8492C335.083 85.8492 341.903 85.6025 345.23 85.6025C346.474 85.6025 346.967 85.7292 346.967 86.4693C346.932 86.6873 346.83 86.889 346.675 87.0457C346.519 87.2025 346.319 87.3063 346.102 87.3427C345.186 87.3224 344.271 87.4052 343.374 87.5895C340.399 88.0829 339.528 89.7031 339.281 93.4237C339.162 96.7575 339.162 99.8846 339.162 104.359V116.154C339.162 120.994 339.035 121.121 337.671 121.868C330.732 125.468 320.818 126.589 314.497 126.589C306.193 126.589 290.703 125.595 278.567 115.287C271.88 109.693 265.559 98.3911 265.559 85.2291C265.559 68.3399 274.109 56.4181 283.776 50.5572C293.564 44.5963 304.469 43.8895 312.773 43.8895C318.393 43.9514 323.994 44.5317 329.507 45.6231C332.398 46.2734 335.343 46.6484 338.303 46.7433C339.421 46.7433 339.634 47.2367 339.634 47.7368C339.634 49.2237 339.015 52.0841 339.015 62.639C339.015 64.3793 338.516 64.8727 337.778 64.8727C337.159 64.8727 337.033 64.2526 337.033 63.2591C336.768 60.7764 335.917 58.3926 334.551 56.3047C331.829 52.3041 323.526 48.1102 309.393 48.1102C302.826 48.1102 294.895 48.6036 286.591 54.9379C280.27 59.7853 275.812 69.22 275.812 81.5152C275.812 96.4174 283.49 107.099 287.336 110.7C295.986 118.774 305.181 121.755 315.222 121.755C319.061 121.755 324.144 121.381 326.992 119.754C328.356 119.008 329.228 118.514 329.228 116.527L329.261 98.2577Z" fill="#BE9778"/>
<path d="M402.871 43.8628C427.41 43.8628 446 58.885 446 83.4754C446 107.072 428.527 126.575 402.252 126.575C372.384 126.575 359.622 104.092 359.622 85.089C359.622 68.0798 372.736 43.8628 402.871 43.8628ZM405.339 122.201C415.127 122.201 434.835 116.98 434.835 86.4292C434.835 61.092 419.465 47.81 402.232 47.81C384.014 47.81 370.88 59.2318 370.88 82.2086C370.9 106.826 385.644 122.201 405.339 122.201Z" fill="#BE9778"/>
<path d="M105.125 82.002C105.092 83.4422 107.401 83.0421 107.401 83.0421C110.688 80.0683 110.728 74.6609 110.728 74.6609L109.676 74.5675C106.29 83.0955 105.158 80.5551 105.125 82.002Z" fill="#BE9778"/>
<path d="M47.0983 133.263C47.9544 134.294 48.9414 135.381 50.0592 136.523C50.8643 137.344 51.6761 138.124 52.4346 138.83H47.1116V133.263H47.0983ZM44.9159 124.195V141.024H58.3564C58.3564 141.024 44.9159 130.509 44.9159 124.195Z" fill="#BE9778"/>
<path d="M99.0969 30.2274V35.7949C98.2386 34.7548 97.2471 33.668 96.136 32.5345C95.3242 31.7143 94.5191 30.9342 93.754 30.2274H99.0769H99.0969ZM101.266 28.0271H87.8521C87.8521 28.0271 101.266 38.5487 101.266 44.8563V28.0271Z" fill="#BE9778"/>
<path d="M101.086 84.8091C100.521 84.9624 100.341 85.3691 100.421 86.3026C100.501 87.2361 97.5199 91.3301 97.5199 91.3301C97.5199 91.3301 97.3536 88.8897 97.4201 88.383C97.4867 87.8762 96.7215 87.7162 96.0428 87.7762C95.3641 87.8362 95.2777 88.1229 95.2777 88.1229C95.3589 88.8141 95.2812 89.5147 95.0506 90.1712C94.8199 90.8276 94.4424 91.4225 93.9469 91.9101C93.6736 92.1802 93.4605 92.5052 93.3217 92.8638C93.183 93.2224 93.1216 93.6064 93.1418 93.9905C93.1418 96.9842 94.9649 96.4775 95.9231 96.3241C96.8812 96.1708 97.1141 93.7037 97.5399 94.0638C97.9657 94.4238 97.6929 95.9307 97.6929 95.9307C99.6891 95.624 100.614 92.5169 100.66 91.7568C100.707 90.9967 100.66 90.89 101.06 90.8633C101.459 90.8366 101.539 92.3702 101.539 92.3702C105.245 90.1632 105.371 87.7028 104.633 85.7425C103.894 83.7823 101.086 84.8091 101.086 84.8091Z" fill="#BE9778"/>
<path d="M39.6462 57.0515C37.2642 61.7189 35.2348 72.0471 36.9116 80.4217C36.9116 80.4217 42.3077 90.8033 36.9116 96.0508C32.9194 99.9247 42.8999 94.0504 47.3645 85.4958C46.8983 87.7784 46.7771 90.1182 47.0052 92.4369C47.6706 109.199 39.2137 122.301 39.2137 122.301C52.3681 119.074 52.5211 101.332 52.5211 101.332C55.2957 102.778 53.1865 117.621 53.1865 117.621C55.9611 116.814 57.1787 109.073 57.1787 109.073C62.1956 121.008 54.0115 134.59 54.0115 134.59C59.6272 134.67 64.2449 118.441 65.2097 126.549C71.6238 120.288 71.7303 109.346 71.7303 109.346C74.5049 110.793 72.3957 125.635 72.3957 125.635C75.1702 124.828 76.3879 117.087 76.3879 117.087C81.4047 129.022 70.3264 142.898 70.3264 142.898C75.1104 142.964 79.5018 140.291 82.7954 136.584C83.5388 133.896 83.8709 131.11 83.7801 128.322C83.3676 114.594 73.5268 102.745 65.3428 95.2239C48.835 80.0483 38.9875 67.8465 39.5797 57.0515" fill="#BE9778"/>
<path d="M111.406 69.2599L96.7282 55.9246C97.9325 53.5976 96.5219 50.2571 95.8166 49.857C95.1113 49.457 95.2244 49.777 93.5344 47.6434C92.3477 46.2947 90.7377 45.3916 88.97 45.083L92.4498 44.8029C96.2225 40.6957 91.4451 32.4144 91.6181 34.5281C91.7911 36.6417 90.6201 39.1954 90.6201 39.1954C89.8283 33.1945 82.0102 28.6472 83.3543 30.2074C84.6983 31.7677 84.5386 35.4349 84.5386 35.4349C82.379 32.0527 79.3578 29.3093 75.7868 27.4879C72.2159 25.6664 68.2246 24.8329 64.2249 25.0733C71.8168 28.7472 74.2853 33.0745 74.2853 33.0745C72.9013 30.9942 62.3685 27.287 62.3685 27.287C58.1501 29.1006 54.6636 33.0412 51.909 37.4218C52.3015 36.9818 51.4765 37.8619 51.909 37.4218C50.5782 42.9627 51.909 50.6238 58.6957 63.4257C61.9095 69.5 65.7553 73.1405 72.1295 79.1748C74.3385 81.2684 76.8403 83.6354 79.7679 86.5092C80.6462 87.376 81.4846 88.2428 82.2897 89.0963C81.8306 88.4295 81.4114 87.9094 81.0587 87.4427C79.4153 85.2157 78.0513 80.0282 77.4325 77.3945L78.6301 73.2139L79.1691 67.073C80.3135 70.8402 80.8658 73.7406 80.8658 73.7406L82.995 73.4806C85.7363 75.6543 91.1524 73.3673 91.1524 73.3673C90.9993 74.034 84.2525 78.0946 84.2525 78.0946C87.6858 81.5151 92.8291 80.0483 92.8291 80.0483C92.0772 81.1151 89.0831 82.0486 89.0831 82.0486C91.1258 83.9022 97.5532 81.6552 97.5532 81.6552C97.4335 82.762 95.3775 84.4489 95.3775 84.4489C97.4468 84.5423 99.7356 83.6621 103.448 81.7218C107.161 79.7815 108.306 73.5806 108.306 73.5806C107.669 73.5742 107.033 73.5275 106.403 73.4406C104.786 73.2806 102.876 70.4868 102.876 70.4868L102.244 74.074C101.639 73.914 100.867 69.0532 100.867 69.0532L99.7689 68.0064C100.92 67.6197 102.537 69.4266 102.537 69.4266C104.772 68.3998 106.309 69.7467 106.888 70.0934C107.467 70.4401 110.155 70.4201 110.987 70.2668C111.819 70.1134 111.406 69.2599 111.406 69.2599ZM93.0221 58.8584C93.0221 58.8584 89.9148 60.8987 87.6991 58.6917C87.6991 58.6917 86.1022 55.7913 84.5586 55.6179C85.2201 55.0292 86.0257 54.627 86.8931 54.4524C87.7605 54.2779 88.6586 54.3372 89.4956 54.6244C89.4956 54.6244 92.3234 56.398 92.8757 54.8578C92.8757 54.8578 93.3215 54.5244 93.5411 56.3847C93.5411 56.3847 96.2757 58.685 96.6749 60.4386C96.6816 60.432 94.8385 58.705 93.0221 58.8584Z" fill="#BE9778"/>
<path d="M47.2114 39.8756C47.0185 46.1632 48.5422 54.5778 54.2244 65.2528C57.9039 72.1938 62.2088 76.2811 69.3616 83.0554C71.7901 85.3491 74.5381 87.9562 77.7519 91.13C84.6584 97.951 89.5023 104.499 92.1571 110.6C94.2796 115.467 95.0049 120.088 94.3195 124.315C93.629 128.142 91.887 131.7 89.2893 134.59C89.4522 133.084 89.5122 131.57 89.469 130.056C89.2112 124.101 87.6507 118.276 84.8979 112.993C81.438 106.046 75.982 99.1045 68.6629 92.3702C59.7204 84.1556 53.0534 76.4811 48.8349 69.5667C44.7695 62.8991 42.8466 56.7315 43.166 51.2306C43.4245 47.141 44.8392 43.2095 47.2447 39.8956L47.2114 39.8756ZM54.5638 27.9604C31.2027 45.1097 35.6008 66.633 66.3607 94.9439C97.1207 123.255 82.7155 144.205 82.7155 144.205C82.7155 144.205 118.798 126.835 80.1738 88.6829C67.5318 76.1877 61.8562 72.3071 57.2718 63.6525C44.1907 38.9821 54.4972 27.9604 54.4972 27.9604H54.5638Z" fill="#BE9778"/>
<path d="M149.924 153.886C149.924 156.773 149.924 159.147 150.051 160.407C150.131 161.281 150.284 161.941 151.049 162.061C151.428 162.124 151.81 162.164 152.193 162.181C152.219 162.178 152.244 162.18 152.268 162.188C152.292 162.196 152.315 162.209 152.333 162.226C152.352 162.243 152.367 162.264 152.378 162.287C152.388 162.31 152.393 162.335 152.393 162.361C152.393 162.514 152.266 162.601 151.987 162.601C150.59 162.601 148.986 162.514 148.86 162.514C148.733 162.514 147.13 162.601 146.365 162.601C146.085 162.601 145.959 162.541 145.959 162.361C145.959 162.181 146.012 162.181 146.165 162.181C146.424 162.17 146.68 162.129 146.93 162.061C147.436 161.941 147.562 161.281 147.662 160.407C147.789 159.147 147.789 156.773 147.789 153.886V141.218L144.029 141.277C142.452 141.277 141.84 141.518 141.434 142.238C141.262 142.535 141.118 142.848 141.002 143.171C140.929 143.411 140.849 143.471 140.749 143.471C140.649 143.471 140.623 143.378 140.623 143.198C140.623 142.898 141.128 140.317 141.181 140.071C141.235 139.824 141.334 139.504 141.434 139.504C141.788 139.675 142.165 139.796 142.552 139.864C143.291 139.957 144.255 140.011 144.548 140.011H154.096C154.701 140.026 155.305 139.977 155.899 139.864C156.285 139.804 156.512 139.711 156.611 139.711C156.711 139.711 156.744 139.897 156.744 140.071C156.744 140.977 156.665 143.051 156.665 143.404C156.665 143.758 156.591 143.798 156.485 143.798C156.378 143.798 156.312 143.705 156.285 143.284V142.958C156.205 142.051 155.62 141.364 153.158 141.304L149.951 141.244L149.924 153.886Z" fill="#BE9778"/>
<path d="M160.989 150.672C160.989 146.712 160.989 146.005 160.936 145.178C160.883 144.351 160.757 143.885 160.018 143.765C159.767 143.73 159.513 143.71 159.26 143.704C159.212 143.693 159.168 143.667 159.136 143.63C159.104 143.593 159.084 143.547 159.08 143.498C159.08 143.344 159.18 143.284 159.439 143.284C160.451 143.284 161.954 143.344 162.101 143.344C162.327 143.344 164.21 143.284 164.895 143.284C166.319 143.284 167.896 143.438 169.067 144.398C169.553 144.838 169.941 145.375 170.208 145.974C170.475 146.574 170.615 147.222 170.617 147.878C170.617 149.772 169.952 151.606 167.869 153.713C169.699 156.38 171.256 158.727 172.527 160.32C173.725 161.761 174.463 162.001 175.022 162.094C175.272 162.159 175.529 162.197 175.787 162.207C175.842 162.211 175.894 162.234 175.932 162.274C175.97 162.313 175.992 162.366 175.994 162.421C175.994 162.567 175.867 162.627 175.461 162.627H174.057C173.228 162.716 172.391 162.539 171.669 162.121C170.704 161.514 169.892 160.287 168.621 158.36C167.676 156.98 166.685 155.326 166.206 154.639C166.174 154.588 166.129 154.546 166.075 154.519C166.021 154.492 165.96 154.481 165.9 154.486L163.052 154.426C162.952 154.426 162.899 154.486 162.899 154.639V155.24C162.899 157.7 162.899 159.687 162.999 160.734C163.079 161.487 163.205 161.967 163.89 162.067C164.218 162.131 164.549 162.171 164.882 162.187C165.035 162.187 165.062 162.307 165.062 162.401C165.062 162.494 164.955 162.607 164.702 162.607C163.485 162.607 162.041 162.521 161.961 162.521C161.881 162.521 160.431 162.607 159.745 162.607C159.519 162.607 159.393 162.547 159.393 162.401C159.393 162.254 159.439 162.187 159.566 162.187C159.791 162.174 160.015 162.134 160.231 162.067C160.663 161.947 160.71 161.467 160.816 160.734C160.943 159.687 160.943 157.673 160.943 155.206L160.989 150.672ZM162.919 152.839C162.917 152.902 162.929 152.964 162.956 153.021C162.983 153.078 163.022 153.128 163.072 153.166C163.861 153.457 164.7 153.591 165.541 153.559C166.135 153.612 166.73 153.452 167.217 153.106C167.976 152.506 168.548 151.159 168.548 149.205C168.548 146.018 167.078 144.185 164.682 144.185C164.146 144.183 163.611 144.235 163.085 144.338C163.03 144.365 162.983 144.408 162.951 144.461C162.919 144.514 162.903 144.576 162.906 144.638L162.919 152.839Z" fill="#BE9778"/>
<path d="M181.603 143.798C181.882 142.958 181.988 142.804 182.142 142.804C182.295 142.804 182.441 143.164 182.674 143.738C183.08 144.818 186.666 155.36 188.037 159.24C188.848 161.521 189.461 161.854 189.946 162.034C190.233 162.133 190.535 162.183 190.838 162.181C190.964 162.181 191.111 162.241 191.111 162.394C191.111 162.547 190.858 162.601 190.605 162.601C190.352 162.601 188.609 162.601 187.072 162.541C186.639 162.541 186.287 162.541 186.287 162.361C186.287 162.181 186.333 162.241 186.433 162.181C186.545 162.116 186.629 162.011 186.667 161.888C186.705 161.764 186.695 161.631 186.639 161.514L184.643 155.66C184.59 155.54 184.57 155.506 184.444 155.506H179.28C179.181 155.506 179.101 155.566 179.054 155.72L177.783 159.78C177.595 160.331 177.485 160.906 177.457 161.487C177.456 161.583 177.476 161.678 177.515 161.766C177.554 161.854 177.612 161.932 177.684 161.995C177.756 162.058 177.841 162.105 177.933 162.133C178.024 162.16 178.121 162.167 178.216 162.154H178.422C178.602 162.154 178.648 162.247 178.648 162.367C178.648 162.487 178.522 162.574 178.322 162.574C177.783 162.574 176.566 162.487 176.326 162.487C176.087 162.487 174.995 162.574 174.064 162.574C173.785 162.574 173.631 162.514 173.631 162.367C173.631 162.313 173.652 162.261 173.689 162.221C173.726 162.181 173.777 162.157 173.831 162.154C174.054 162.149 174.276 162.129 174.496 162.094C175.508 161.947 175.94 161.041 176.373 159.754L181.603 143.798ZM184.098 154.466C184.197 154.466 184.198 154.406 184.171 154.286L181.962 147.285C181.838 146.889 181.711 146.889 181.583 147.285L179.493 154.286C179.467 154.406 179.493 154.466 179.573 154.466H184.098Z" fill="#BE9778"/>
<path d="M207.725 155.18C207.725 157.647 207.725 159.66 207.851 160.707C207.925 161.46 207.978 161.941 208.663 162.041C208.99 162.103 209.322 162.143 209.654 162.161C209.682 162.16 209.71 162.165 209.736 162.175C209.762 162.185 209.786 162.201 209.805 162.221C209.824 162.241 209.839 162.265 209.849 162.292C209.859 162.318 209.863 162.346 209.861 162.374C209.861 162.494 209.734 162.581 209.475 162.581C208.257 162.581 206.813 162.494 206.707 162.494C206.6 162.494 205.157 162.581 204.491 162.581C204.238 162.581 204.139 162.521 204.139 162.374C204.136 162.348 204.138 162.322 204.146 162.297C204.154 162.272 204.166 162.249 204.183 162.229C204.2 162.209 204.22 162.193 204.244 162.181C204.267 162.169 204.292 162.162 204.318 162.161C204.544 162.15 204.768 162.109 204.984 162.041C205.443 161.921 205.516 161.407 205.596 160.66C205.696 159.607 205.696 157.687 205.696 155.22V152.666C205.696 152.546 205.642 152.519 205.569 152.519H196.254C196.174 152.519 196.121 152.519 196.121 152.666V155.22C196.121 157.687 196.121 159.64 196.227 160.687C196.301 161.44 196.38 161.921 197.039 162.021C197.375 162.083 197.715 162.123 198.057 162.141C198.083 162.142 198.108 162.149 198.132 162.161C198.155 162.173 198.176 162.189 198.192 162.209C198.209 162.229 198.222 162.252 198.229 162.277C198.237 162.302 198.239 162.328 198.237 162.354C198.237 162.474 198.13 162.561 197.877 162.561C196.633 162.561 195.216 162.474 195.11 162.474C195.003 162.474 193.559 162.561 192.867 162.561C192.641 162.561 192.515 162.501 192.515 162.354C192.512 162.328 192.514 162.302 192.522 162.277C192.53 162.252 192.542 162.229 192.559 162.209C192.576 162.189 192.596 162.173 192.62 162.161C192.643 162.149 192.668 162.142 192.694 162.141C192.92 162.128 193.143 162.087 193.36 162.021C193.792 161.901 193.839 161.42 193.945 160.687C194.072 159.64 194.072 157.627 194.072 155.16V150.672C194.072 146.712 194.072 146.005 194.018 145.178C193.965 144.351 193.839 143.885 193.107 143.765C192.853 143.73 192.598 143.71 192.342 143.704C192.294 143.693 192.251 143.667 192.218 143.63C192.186 143.593 192.166 143.547 192.162 143.498C192.162 143.344 192.262 143.284 192.521 143.284C193.539 143.284 194.963 143.344 195.09 143.344C195.216 143.344 196.613 143.284 197.299 143.284C197.551 143.284 197.658 143.344 197.658 143.498C197.652 143.546 197.631 143.592 197.599 143.628C197.567 143.665 197.525 143.692 197.478 143.704C197.29 143.7 197.102 143.72 196.919 143.765C196.307 143.918 196.181 144.278 196.128 145.178C196.074 146.078 196.128 146.772 196.128 150.732V151.279C196.128 151.426 196.181 151.426 196.261 151.426H205.576C205.649 151.426 205.702 151.426 205.702 151.279V150.732C205.702 146.772 205.702 145.992 205.649 145.178C205.596 144.365 205.496 143.885 204.764 143.765C204.51 143.73 204.255 143.71 203.999 143.704C203.949 143.697 203.904 143.672 203.872 143.634C203.839 143.596 203.82 143.548 203.819 143.498C203.819 143.344 203.926 143.284 204.179 143.284C205.17 143.284 206.62 143.344 206.72 143.344C206.82 143.344 208.271 143.284 208.929 143.284C209.182 143.284 209.315 143.344 209.315 143.498C209.308 143.55 209.284 143.599 209.247 143.636C209.21 143.674 209.161 143.698 209.109 143.704C208.921 143.701 208.733 143.721 208.55 143.765C207.964 143.918 207.838 144.278 207.785 145.178C207.732 146.078 207.738 146.712 207.738 150.672L207.725 155.18Z" fill="#BE9778"/>
<path d="M222.815 162.207C222.463 161.994 222.436 161.874 222.436 161.061C222.436 159.56 222.536 158.393 222.563 157.88C222.563 157.547 222.642 157.4 222.769 157.4C222.895 157.4 222.942 157.487 222.942 157.727C222.934 158.111 222.963 158.495 223.028 158.874C223.148 159.768 223.603 160.583 224.302 161.153C225 161.723 225.889 162.005 226.788 161.941C229.23 161.941 230.427 159.867 230.427 157.94C230.427 155.866 229.689 154.666 227.5 152.533L226.355 151.399C223.661 148.785 223.028 146.918 223.028 144.878C223.028 141.664 225.058 139.471 228.291 139.471C229.089 139.458 229.884 139.559 230.654 139.771C230.943 139.859 231.243 139.91 231.545 139.924C231.745 139.924 231.798 139.977 231.798 140.131C231.798 140.284 231.698 141.271 231.698 143.318C231.698 143.798 231.645 143.985 231.519 143.985C231.392 143.985 231.339 143.838 231.312 143.598C231.27 143.083 231.161 142.577 230.986 142.091C230.833 141.764 230.148 140.504 227.806 140.504C226.049 140.504 224.679 141.791 224.679 143.985C224.679 145.698 225.344 146.778 227.779 149.032L228.491 149.699C231.492 152.493 232.204 154.366 232.204 156.76C232.213 157.697 232.026 158.625 231.653 159.485C231.28 160.344 230.731 161.115 230.041 161.747C228.948 162.603 227.589 163.049 226.202 163.007C225.023 163.042 223.855 162.766 222.815 162.207Z" fill="#BE9778"/>
<path d="M240.388 155.18C240.388 157.647 240.388 159.66 240.488 160.707C240.561 161.46 240.641 161.941 241.299 162.041C241.637 162.119 241.979 162.175 242.324 162.207C242.35 162.209 242.375 162.216 242.399 162.228C242.422 162.239 242.443 162.256 242.459 162.276C242.476 162.295 242.489 162.319 242.496 162.344C242.504 162.369 242.506 162.395 242.504 162.421C242.504 162.541 242.397 162.627 242.144 162.627C240.9 162.627 239.45 162.541 239.35 162.541C239.25 162.541 237.826 162.627 237.134 162.627C236.908 162.627 236.782 162.567 236.782 162.421C236.779 162.395 236.781 162.369 236.789 162.344C236.797 162.319 236.809 162.295 236.826 162.276C236.843 162.256 236.863 162.239 236.887 162.228C236.91 162.216 236.935 162.209 236.961 162.207C237.187 162.194 237.41 162.154 237.627 162.087C238.059 161.967 238.132 161.487 238.212 160.754C238.312 159.707 238.339 157.693 238.339 155.226V150.672C238.339 146.712 238.339 146.005 238.285 145.178C238.232 144.351 238.059 143.918 237.573 143.798C237.355 143.745 237.132 143.714 236.908 143.704C236.859 143.697 236.814 143.672 236.781 143.634C236.748 143.596 236.729 143.548 236.728 143.498C236.728 143.344 236.835 143.284 237.088 143.284C237.826 143.284 239.223 143.344 239.35 143.344C239.476 143.344 240.9 143.284 241.586 143.284C241.838 143.284 241.945 143.344 241.945 143.498C241.939 143.546 241.918 143.592 241.886 143.628C241.854 143.665 241.812 143.692 241.765 143.704C241.577 143.7 241.389 143.72 241.206 143.765C240.594 143.918 240.468 144.278 240.414 145.178C240.361 146.078 240.414 146.712 240.414 150.672L240.388 155.18Z" fill="#BE9778"/>
<path d="M248.672 159.12C248.725 161.221 248.925 161.854 249.537 162.034C249.902 162.129 250.277 162.179 250.654 162.181C250.68 162.182 250.706 162.189 250.729 162.201C250.752 162.213 250.773 162.229 250.79 162.249C250.807 162.269 250.819 162.292 250.827 162.317C250.834 162.342 250.837 162.368 250.834 162.394C250.834 162.541 250.681 162.601 250.428 162.601C249.157 162.601 248.266 162.514 248.066 162.514C247.867 162.514 246.922 162.601 245.904 162.601C245.671 162.601 245.544 162.601 245.544 162.394C245.541 162.342 245.557 162.291 245.591 162.251C245.625 162.211 245.672 162.186 245.724 162.181C246.036 162.18 246.346 162.13 246.642 162.034C247.201 161.854 247.274 161.161 247.274 158.847V144.205C247.274 143.185 247.401 142.911 247.58 142.911C247.76 142.911 248.246 143.425 248.445 143.691C248.798 144.111 252.052 148.199 255.512 152.406C257.727 155.073 260.116 158.14 260.801 158.98L260.575 146.205C260.575 144.551 260.422 143.985 259.73 143.831C259.37 143.76 259.005 143.72 258.639 143.711C258.486 143.711 258.459 143.565 258.459 143.471C258.459 143.378 258.639 143.291 258.892 143.291C259.91 143.291 260.981 143.351 261.234 143.351C261.487 143.351 262.225 143.291 263.143 143.291C263.37 143.291 263.549 143.291 263.549 143.471C263.541 143.536 263.511 143.595 263.464 143.639C263.416 143.683 263.354 143.709 263.29 143.711C263.111 143.709 262.932 143.729 262.758 143.771C262.019 143.951 261.972 144.438 261.972 145.998L261.919 160.954C261.919 162.641 261.919 162.787 261.74 162.787C261.56 162.787 261.287 162.581 260.036 161.227C259.81 160.987 256.583 157.227 254.214 154.32C251.626 151.106 249.104 147.979 248.419 147.078L248.672 159.12Z" fill="#BE9778"/>
<path d="M279.079 156.08C279.079 154.013 279.032 153.713 278.114 153.499C277.861 153.462 277.605 153.442 277.349 153.439C277.276 153.439 277.176 153.319 277.176 153.226C277.176 153.133 277.276 153.019 277.529 153.019C278.547 153.019 280.044 153.079 280.19 153.079C280.337 153.079 281.694 153.019 282.379 153.019C282.632 153.019 282.739 153.019 282.739 153.226C282.734 153.276 282.714 153.323 282.682 153.361C282.65 153.399 282.607 153.426 282.559 153.439C282.371 153.434 282.183 153.455 282 153.499C281.388 153.619 281.208 154.013 281.162 154.913C281.115 155.813 281.162 156.473 281.162 157.58V160.434C281.162 161.607 281.162 161.634 280.856 161.821C279.389 162.59 277.754 162.982 276.098 162.961C274.395 162.961 271.221 162.721 268.726 160.227C267.355 158.894 266.064 156.14 266.064 152.953C266.064 148.872 267.821 145.985 269.804 144.571C271.563 143.409 273.648 142.841 275.752 142.951C276.908 142.966 278.06 143.107 279.185 143.371C279.775 143.528 280.379 143.62 280.989 143.645C281.221 143.645 281.268 143.765 281.268 143.885C281.268 144.245 281.142 144.931 281.142 147.485C281.142 147.905 281.042 148.032 280.889 148.032C280.736 148.032 280.736 147.879 280.736 147.639C280.685 147.049 280.51 146.476 280.223 145.958C279.671 144.991 277.961 143.958 275.067 143.958C274.22 143.907 273.371 144.027 272.571 144.311C271.771 144.595 271.036 145.038 270.409 145.612C269.079 146.785 268.194 149.065 268.194 152.039C268.148 154.596 268.985 157.09 270.562 159.1C271.258 159.941 272.132 160.617 273.121 161.078C274.109 161.539 275.187 161.775 276.278 161.767C277.111 161.82 277.943 161.655 278.693 161.287C278.843 161.224 278.969 161.114 279.051 160.973C279.134 160.833 279.169 160.669 279.152 160.507L279.079 156.08Z" fill="#BE9778"/>
<path d="M294.183 142.924C299.213 142.924 303.032 146.558 303.032 152.506C303.032 158.213 299.446 162.934 294.056 162.934C287.928 162.934 285.307 157.493 285.307 152.899C285.307 148.785 288.002 142.924 294.183 142.924ZM294.689 161.881C296.685 161.881 300.743 160.62 300.743 153.213C300.743 147.085 297.59 143.878 294.09 143.878C290.35 143.878 287.656 146.645 287.656 152.199C287.622 158.153 290.65 161.881 294.689 161.881Z" fill="#BE9778"/>
<path d="M316.659 150.672C316.659 146.712 316.659 146.005 316.606 145.178C316.553 144.351 316.426 143.885 315.688 143.765C315.436 143.73 315.183 143.71 314.929 143.704C314.881 143.693 314.838 143.667 314.806 143.63C314.773 143.593 314.754 143.547 314.749 143.498C314.749 143.344 314.849 143.284 315.109 143.284C316.12 143.284 317.497 143.344 317.624 143.344C317.75 143.344 319.174 143.284 319.833 143.284C320.092 143.284 320.192 143.344 320.192 143.498C320.191 143.548 320.173 143.596 320.14 143.634C320.107 143.672 320.062 143.697 320.012 143.704C319.824 143.701 319.637 143.721 319.454 143.765C318.868 143.918 318.715 144.278 318.668 145.178C318.622 146.078 318.615 146.712 318.615 150.672V152.206H318.715C319.074 151.726 323.066 147.072 323.905 146.052C324.537 145.298 325.122 144.638 325.122 144.218C325.122 143.798 325.023 143.738 324.843 143.704C324.788 143.692 324.739 143.661 324.703 143.618C324.667 143.575 324.646 143.521 324.643 143.464C324.643 143.344 324.743 143.284 324.896 143.284C325.355 143.284 326.041 143.344 326.573 143.344C326.699 143.344 328.177 143.284 328.735 143.284C328.962 143.284 329.061 143.344 329.061 143.464C329.061 143.584 329.015 143.678 328.835 143.678C328.4 143.711 327.977 143.833 327.591 144.038C326.673 144.518 326.26 145.085 325.249 146.198C324.69 146.798 320.877 151.126 320.392 151.759C320.977 152.506 325.628 158.007 326.546 158.993C328.429 160.994 328.682 161.307 329.753 161.821C330.186 162.02 330.65 162.142 331.124 162.181C331.189 162.173 331.255 162.191 331.307 162.231C331.359 162.271 331.394 162.329 331.404 162.394C331.404 162.514 331.304 162.601 330.918 162.601H329.773C329.256 162.613 328.738 162.593 328.223 162.541C327.059 162.421 326.473 161.874 325.502 160.98C324.53 160.087 319.786 154.193 318.715 152.686H318.615V155.18C318.615 157.647 318.615 159.66 318.715 160.707C318.795 161.46 318.895 161.941 319.58 162.041C319.865 162.103 320.154 162.143 320.445 162.161C320.471 162.162 320.496 162.169 320.52 162.181C320.543 162.193 320.563 162.209 320.58 162.229C320.597 162.249 320.61 162.272 320.617 162.297C320.625 162.322 320.627 162.348 320.625 162.374C320.625 162.494 320.525 162.581 320.265 162.581C319.174 162.581 317.83 162.494 317.65 162.494C317.471 162.494 316.12 162.581 315.435 162.581C315.209 162.581 315.082 162.521 315.082 162.374C315.079 162.348 315.082 162.322 315.09 162.297C315.097 162.272 315.11 162.249 315.127 162.229C315.143 162.209 315.164 162.193 315.187 162.181C315.21 162.169 315.236 162.162 315.262 162.161C315.488 162.148 315.711 162.107 315.927 162.041C316.36 161.921 316.406 161.44 316.513 160.707C316.639 159.66 316.639 157.647 316.639 155.18L316.659 150.672Z" fill="#BE9778"/>
<path d="M336.866 143.798C337.146 142.958 337.252 142.804 337.405 142.804C337.558 142.804 337.705 143.164 337.938 143.738C338.343 144.818 341.93 155.36 343.3 159.24C344.112 161.521 344.724 161.854 345.21 162.034C345.501 162.145 345.81 162.203 346.122 162.207C346.255 162.207 346.401 162.267 346.401 162.421C346.401 162.574 346.148 162.627 345.895 162.627C345.643 162.627 343.899 162.627 342.362 162.567C341.93 162.567 341.57 162.567 341.57 162.387C341.57 162.207 341.624 162.267 341.724 162.207C341.837 162.144 341.921 162.039 341.959 161.915C341.998 161.791 341.987 161.657 341.93 161.541L339.934 155.686C339.88 155.566 339.86 155.533 339.734 155.533H334.571C334.471 155.533 334.391 155.593 334.338 155.746L333.067 159.834C332.879 160.384 332.769 160.959 332.741 161.541C332.74 161.637 332.76 161.732 332.799 161.819C332.838 161.907 332.896 161.985 332.968 162.048C333.04 162.112 333.124 162.159 333.216 162.186C333.308 162.214 333.405 162.221 333.5 162.207H333.706C333.885 162.207 333.932 162.301 333.932 162.421C333.932 162.541 333.806 162.627 333.606 162.627C333.067 162.627 331.849 162.541 331.61 162.541C331.37 162.541 330.279 162.627 329.348 162.627C329.068 162.627 328.915 162.567 328.915 162.421C328.915 162.366 328.936 162.314 328.973 162.274C329.01 162.235 329.061 162.211 329.115 162.207C329.338 162.203 329.56 162.183 329.78 162.147C330.791 162.001 331.224 161.094 331.656 159.807L336.866 143.798ZM339.361 154.466C339.461 154.466 339.461 154.406 339.435 154.286L337.226 147.285C337.101 146.889 336.975 146.889 336.846 147.285L334.757 154.286C334.73 154.406 334.757 154.466 334.837 154.466H339.361Z" fill="#BE9778"/>
<path d="M349.329 150.672C349.329 146.712 349.329 146.005 349.275 145.178C349.222 144.351 349.096 143.885 348.357 143.765C348.106 143.73 347.852 143.71 347.599 143.704C347.551 143.693 347.508 143.667 347.475 143.63C347.443 143.593 347.423 143.547 347.419 143.498C347.419 143.344 347.519 143.284 347.778 143.284C348.796 143.284 350.293 143.344 350.44 143.344C350.586 143.344 352.549 143.284 353.234 143.284C354.658 143.284 356.235 143.438 357.406 144.398C357.892 144.838 358.281 145.375 358.547 145.974C358.814 146.574 358.954 147.222 358.956 147.878C358.956 149.772 358.291 151.606 356.208 153.713C358.045 156.38 359.595 158.727 360.866 160.32C362.057 161.761 362.796 162.001 363.355 162.094C363.612 162.151 363.876 162.18 364.14 162.181C364.194 162.184 364.246 162.208 364.284 162.247C364.322 162.287 364.344 162.339 364.346 162.394C364.346 162.541 364.22 162.601 363.814 162.601H362.416C361.585 162.687 360.747 162.51 360.021 162.094C359.056 161.487 358.245 160.26 356.974 158.333C356.036 156.953 355.037 155.3 354.558 154.613C354.527 154.561 354.482 154.519 354.428 154.492C354.373 154.464 354.313 154.453 354.252 154.459L351.405 154.399C351.305 154.399 351.252 154.459 351.252 154.613V155.213C351.252 157.673 351.252 159.66 351.351 160.707C351.431 161.461 351.558 161.941 352.243 162.041C352.57 162.104 352.901 162.144 353.234 162.161C353.387 162.161 353.414 162.281 353.414 162.374C353.414 162.467 353.314 162.581 353.055 162.581C351.837 162.581 350.393 162.494 350.313 162.494C350.233 162.494 348.79 162.581 348.098 162.581C347.871 162.581 347.745 162.521 347.745 162.374C347.742 162.348 347.745 162.322 347.752 162.297C347.76 162.272 347.773 162.249 347.789 162.229C347.806 162.209 347.827 162.193 347.85 162.181C347.873 162.169 347.899 162.162 347.925 162.161C348.151 162.148 348.374 162.107 348.59 162.041C349.023 161.921 349.069 161.441 349.176 160.707C349.302 159.66 349.302 157.647 349.302 155.18L349.329 150.672ZM351.258 152.839C351.256 152.902 351.268 152.964 351.295 153.021C351.322 153.078 351.362 153.128 351.411 153.166C352.201 153.456 353.039 153.59 353.88 153.559C354.475 153.612 355.069 153.452 355.556 153.106C356.322 152.506 356.887 151.159 356.887 149.205C356.887 146.018 355.417 144.185 353.028 144.185C352.49 144.183 351.953 144.234 351.424 144.338C351.369 144.366 351.323 144.409 351.291 144.462C351.259 144.515 351.243 144.576 351.245 144.638L351.258 152.839Z" fill="#BE9778"/>
<path d="M368.498 155.96C368.564 155.061 368.397 154.161 368.012 153.346C367.833 152.959 364.812 147.278 364.02 145.932C363.653 145.219 363.151 144.585 362.543 144.065C362.267 143.864 361.943 143.74 361.605 143.705C361.543 143.701 361.486 143.674 361.444 143.63C361.402 143.585 361.378 143.526 361.378 143.465C361.378 143.345 361.452 143.285 361.658 143.285C362.09 143.285 363.767 143.345 363.867 143.345C363.967 143.345 364.938 143.285 365.803 143.285C366.056 143.285 366.103 143.345 366.103 143.465C366.103 143.585 365.95 143.645 365.75 143.738C365.665 143.769 365.592 143.827 365.542 143.902C365.491 143.978 365.466 144.067 365.47 144.158C365.497 144.506 365.601 144.843 365.776 145.145L369.842 153.106C370.301 152.026 373.096 146.558 373.501 145.718C373.729 145.309 373.861 144.853 373.887 144.385C373.887 144.025 373.781 143.811 373.528 143.718C373.275 143.625 373.202 143.538 373.202 143.418C373.202 143.298 373.328 143.265 373.555 143.265C374.14 143.265 374.925 143.325 375.105 143.325C375.285 143.325 376.862 143.265 377.294 143.265C377.447 143.265 377.574 143.325 377.574 143.418C377.57 143.49 377.539 143.558 377.487 143.607C377.435 143.657 377.366 143.685 377.294 143.685C376.922 143.696 376.56 143.811 376.249 144.018C375.795 144.357 375.414 144.786 375.132 145.278C374.393 146.298 371.239 152.306 370.78 153.386C370.504 154.207 370.409 155.078 370.501 155.94V158.133C370.501 158.553 370.501 159.64 370.58 160.687C370.634 161.441 370.78 161.921 371.445 162.021C371.782 162.084 372.122 162.125 372.463 162.141C372.59 162.141 372.636 162.261 372.636 162.354C372.636 162.447 372.51 162.561 372.284 162.561C371.04 162.561 369.589 162.474 369.463 162.474C369.336 162.474 367.932 162.561 367.274 162.561C367.021 162.561 366.921 162.501 366.921 162.354C366.921 162.207 366.968 162.141 367.094 162.141C367.32 162.13 367.544 162.09 367.759 162.021C368.218 161.901 368.365 161.421 368.425 160.687C368.478 159.64 368.478 158.553 368.478 158.133L368.498 155.96Z" fill="#BE9778"/>
<path d="M382.963 143.798C383.242 142.958 383.342 142.804 383.495 142.804C383.648 142.804 383.801 143.164 384.028 143.738C384.44 144.818 388.02 155.36 389.397 159.24C390.209 161.521 390.821 161.854 391.3 162.034C391.587 162.133 391.888 162.183 392.192 162.181C392.318 162.181 392.471 162.241 392.471 162.394C392.471 162.547 392.218 162.601 391.965 162.601C391.713 162.601 389.969 162.601 388.426 162.541C387.993 162.541 387.641 162.541 387.641 162.361C387.641 162.181 387.694 162.241 387.794 162.181C387.904 162.115 387.986 162.01 388.023 161.886C388.06 161.763 388.05 161.63 387.993 161.514L385.997 155.66C385.944 155.54 385.917 155.506 385.791 155.506H380.628C380.528 155.506 380.455 155.566 380.401 155.72L379.13 159.807C378.937 160.357 378.825 160.932 378.798 161.514C378.797 161.611 378.817 161.706 378.856 161.794C378.896 161.883 378.954 161.961 379.027 162.025C379.099 162.088 379.185 162.135 379.278 162.162C379.37 162.189 379.468 162.195 379.563 162.181H379.763C379.942 162.181 379.995 162.274 379.995 162.394C379.995 162.514 379.869 162.601 379.663 162.601C379.13 162.601 377.913 162.514 377.667 162.514C377.42 162.514 376.336 162.601 375.404 162.601C375.125 162.601 374.972 162.541 374.972 162.394C374.973 162.339 374.996 162.287 375.034 162.247C375.072 162.208 375.123 162.184 375.178 162.181C375.401 162.176 375.623 162.156 375.844 162.121C376.862 161.974 377.294 161.067 377.727 159.78L382.963 143.798ZM385.451 154.466C385.558 154.466 385.558 154.406 385.531 154.286L383.316 147.285C383.191 146.889 383.065 146.889 382.936 147.285L380.854 154.286C380.854 154.406 380.854 154.466 380.927 154.466H385.451Z" fill="#BE9778"/>
<path d="M396.364 159.12C396.41 161.221 396.616 161.854 397.229 162.034C397.593 162.13 397.969 162.179 398.346 162.181C398.372 162.183 398.396 162.191 398.419 162.203C398.441 162.215 398.461 162.231 398.477 162.251C398.493 162.271 398.505 162.294 398.513 162.318C398.52 162.343 398.522 162.369 398.519 162.394C398.519 162.541 398.373 162.601 398.113 162.601C396.843 162.601 395.958 162.514 395.751 162.514C395.545 162.514 394.607 162.601 393.589 162.601C393.363 162.601 393.236 162.601 393.236 162.394C393.234 162.369 393.236 162.343 393.243 162.318C393.25 162.294 393.262 162.271 393.278 162.251C393.294 162.231 393.314 162.215 393.337 162.203C393.359 162.191 393.384 162.183 393.409 162.181C393.721 162.18 394.031 162.13 394.328 162.034C394.886 161.854 394.993 161.161 394.993 158.847V144.205C394.993 143.185 395.119 142.911 395.292 142.911C395.465 142.911 395.958 143.425 396.157 143.691C396.517 144.111 399.77 148.199 403.23 152.406C405.439 155.073 407.828 158.14 408.513 158.98L408.26 146.205C408.26 144.551 408.107 143.985 407.422 143.831C407.062 143.76 406.697 143.72 406.331 143.711C406.178 143.711 406.151 143.565 406.151 143.471C406.151 143.378 406.331 143.291 406.584 143.291C407.602 143.291 408.666 143.351 408.919 143.351C409.172 143.351 409.91 143.291 410.829 143.291C411.055 143.291 411.234 143.291 411.234 143.471C411.228 143.535 411.199 143.594 411.153 143.638C411.106 143.683 411.046 143.708 410.982 143.711C410.802 143.709 410.624 143.729 410.449 143.771C409.711 143.951 409.658 144.438 409.658 145.998L409.611 160.954C409.611 162.641 409.611 162.787 409.431 162.787C409.252 162.787 408.972 162.581 407.728 161.227C407.495 160.987 404.268 157.227 401.906 154.32C399.311 151.106 396.796 147.979 396.104 147.078L396.364 159.12Z" fill="#BE9778"/>
<path d="M212.236 188.211C212.236 183.731 212.236 182.931 212.183 182.01C212.13 181.09 211.897 180.577 210.945 180.377C210.625 180.317 210.3 180.288 209.974 180.29C209.861 180.29 209.748 180.23 209.748 180.117C209.748 180.003 209.887 179.89 210.207 179.89C210.872 179.89 211.637 179.89 212.269 179.89L213.44 179.95C213.64 179.95 219.342 179.95 220.001 179.95C220.412 179.935 220.821 179.889 221.225 179.81C221.372 179.81 221.485 179.663 221.631 179.663C221.777 179.663 221.744 179.783 221.744 179.923C221.744 180.063 221.598 180.47 221.518 181.257C221.485 181.544 221.432 182.81 221.372 183.151C221.372 183.297 221.285 183.471 221.172 183.471C221.059 183.471 220.939 183.324 220.939 183.097C220.942 182.746 220.886 182.396 220.773 182.064C220.567 181.604 220.287 181.257 218.737 181.084C218.251 181.03 215.13 180.997 214.811 180.997C214.698 180.997 214.645 181.084 214.645 181.29V189.205C214.645 189.411 214.645 189.491 214.811 189.491C215.184 189.491 218.71 189.492 219.369 189.438C220.028 189.385 220.453 189.325 220.7 189.038C220.946 188.751 221.012 188.665 221.132 188.665C221.252 188.665 221.272 188.718 221.272 188.891C221.272 189.065 221.132 189.558 221.046 190.498C220.986 191.072 220.926 192.132 220.926 192.332C220.926 192.532 220.926 192.879 220.726 192.879C220.527 192.879 220.527 192.765 220.527 192.625C220.54 192.303 220.502 191.981 220.413 191.672C220.3 191.272 220.041 190.785 218.923 190.672C218.151 190.585 215.317 190.525 214.831 190.525C214.804 190.522 214.777 190.525 214.751 190.534C214.725 190.543 214.702 190.557 214.683 190.576C214.664 190.596 214.649 190.619 214.64 190.645C214.631 190.671 214.628 190.698 214.631 190.725V193.252C214.631 194.226 214.631 197.559 214.631 198.159C214.718 200.16 215.144 200.513 217.958 200.513C218.886 200.565 219.815 200.457 220.706 200.193C221.451 199.88 221.797 199.306 221.997 198.133C222.05 197.813 222.11 197.699 222.25 197.699C222.39 197.699 222.423 197.933 222.423 198.133C222.347 199.065 222.222 199.993 222.05 200.913C221.851 201.66 221.624 201.66 220.507 201.66C218.357 201.66 216.787 201.6 215.669 201.573C214.552 201.547 213.866 201.487 213.434 201.487C213.374 201.487 212.888 201.487 212.289 201.487C211.691 201.487 211.058 201.54 210.626 201.54C210.313 201.54 210.167 201.487 210.167 201.313C210.167 201.14 210.227 201.14 210.4 201.14C210.689 201.128 210.976 201.09 211.258 201.027C211.83 200.907 211.97 200.28 212.09 199.446C212.229 198.239 212.229 195.972 212.229 193.219L212.236 188.211Z" fill="#BE9778"/>
<path d="M227.866 201.226C227.466 201.026 227.433 200.913 227.433 200.14C227.433 198.706 227.553 197.553 227.579 197.093C227.579 196.779 227.666 196.639 227.806 196.639C227.945 196.639 228.012 196.719 228.012 196.952C228.004 197.308 228.03 197.663 228.092 198.013C228.524 200.14 230.414 200.94 232.33 200.94C232.854 200.978 233.379 200.908 233.875 200.734C234.37 200.56 234.824 200.285 235.208 199.927C235.593 199.569 235.9 199.136 236.11 198.654C236.32 198.172 236.428 197.652 236.429 197.126C236.429 195.126 235.597 193.999 233.135 191.958L231.845 190.878C228.81 188.385 228.125 186.604 228.125 184.651C228.125 181.583 230.414 179.49 234.054 179.49C234.949 179.477 235.843 179.574 236.715 179.777C237.042 179.859 237.376 179.906 237.713 179.917C237.946 179.917 237.999 179.977 237.999 180.117C237.999 180.257 237.886 181.21 237.886 183.157C237.886 183.617 237.833 183.824 237.686 183.824C237.54 183.824 237.487 183.684 237.46 183.45C237.404 182.957 237.279 182.475 237.088 182.017C236.915 181.704 236.143 180.497 233.508 180.497C231.512 180.497 229.981 181.73 229.981 183.831C229.981 185.471 230.727 186.498 233.475 188.651L234.28 189.318C237.66 191.985 238.458 193.765 238.458 196.059C238.453 196.989 238.229 197.905 237.806 198.733C237.383 199.561 236.773 200.278 236.023 200.826C234.739 201.658 233.233 202.076 231.705 202.027C230.381 202.056 229.068 201.782 227.866 201.226Z" fill="#BE9778"/>
<path d="M252.112 193.279C252.112 196.032 252.112 198.299 252.251 199.506C252.338 200.34 252.511 200.967 253.369 201.087C253.775 201.14 254.401 201.2 254.66 201.2C254.92 201.2 254.886 201.287 254.886 201.373C254.886 201.46 254.747 201.6 254.434 201.6C252.857 201.6 251.054 201.513 250.907 201.513C250.761 201.513 248.964 201.6 248.106 201.6C247.787 201.6 247.647 201.547 247.647 201.373C247.647 201.2 247.7 201.2 247.873 201.2C248.162 201.188 248.45 201.151 248.732 201.087C249.304 200.967 249.45 200.34 249.563 199.506C249.703 198.299 249.703 196.032 249.703 193.279V181.144L245.471 181.197C243.695 181.197 243.003 181.43 242.55 182.117C242.357 182.398 242.192 182.697 242.058 183.011C241.971 183.237 241.892 183.291 241.778 183.291C241.665 183.291 241.632 183.204 241.632 183.037C241.632 182.75 242.204 180.283 242.297 180.05C242.391 179.817 242.464 179.51 242.584 179.51C242.987 179.676 243.409 179.79 243.841 179.85C244.673 179.937 245.757 179.997 246.103 179.997H256.842C257.522 180.009 258.201 179.96 258.872 179.85C259.304 179.797 259.537 179.703 259.677 179.703C259.817 179.703 259.817 179.877 259.817 180.05C259.817 180.91 259.73 182.891 259.73 183.204C259.73 183.517 259.644 183.577 259.53 183.577C259.417 183.577 259.331 183.497 259.304 183.091V182.777C259.218 181.917 258.526 181.257 255.778 181.197L252.172 181.144L252.112 193.279Z" fill="#BE9778"/>
<path d="M271.401 201.547C271.295 201.545 271.195 201.502 271.12 201.428C271.046 201.353 271.003 201.252 271.001 201.147C271.001 200.92 271.288 200.66 271.514 200.48C277.243 195.366 281.494 191.412 281.494 185.904C281.494 181.797 278.833 180.57 276.943 180.57C276.385 180.527 275.824 180.602 275.297 180.791C274.77 180.979 274.288 181.276 273.883 181.664C273.536 182.035 273.268 182.472 273.095 182.95C272.922 183.428 272.848 183.937 272.878 184.444C272.878 184.704 272.765 184.877 272.618 184.877C272.472 184.877 272.419 184.764 272.392 184.504C272.365 184.244 272.219 181.837 272.219 180.977C272.219 180.803 272.219 180.717 272.505 180.543C274.107 179.842 275.842 179.501 277.589 179.543C281.913 179.543 284.063 182.297 284.063 185.338C284.063 191.278 277.648 196.586 274.082 199.626C273.942 199.74 273.996 199.826 274.142 199.826H276.231C276.717 199.826 280.097 199.826 281.128 199.68C283.218 199.48 284.136 198.446 284.455 196.926C284.542 196.613 284.628 196.499 284.801 196.499C284.974 196.499 284.974 196.753 284.974 196.926C284.779 198.199 284.492 199.455 284.116 200.687C283.883 201.46 283.451 201.547 282.253 201.547H271.401Z" fill="#BE9778"/>
<path d="M294.728 179.543C299.972 179.543 301.489 186.371 301.489 190.125C301.489 196.726 298.94 202.033 294.269 202.033C289.805 202.033 287.542 196.586 287.542 191.445C287.569 184.644 290.151 179.543 294.728 179.543ZM294.848 200.973C297.423 200.973 299.166 197.012 299.166 191.358C299.166 185.911 297.397 180.603 294.156 180.603C291.495 180.603 289.865 184.444 289.865 190.272C289.865 195.259 291.322 200.94 294.848 200.94V200.973Z" fill="#BE9778"/>
<path d="M312.421 192.879C312.421 195.746 312.421 198.213 312.56 199.48C312.68 200.366 312.793 200.813 313.711 201C314.338 201.093 314.968 201.151 315.601 201.173C315.663 201.177 315.721 201.201 315.767 201.242C315.813 201.284 315.844 201.339 315.854 201.4C315.854 201.547 315.714 201.6 315.368 201.6C313.219 201.6 311.376 201.513 311.25 201.513C311.123 201.513 308.695 201.6 306.865 201.6C306.552 201.6 306.379 201.547 306.379 201.4C306.384 201.341 306.409 201.286 306.45 201.245C306.492 201.203 306.547 201.178 306.605 201.173C307.374 201.155 308.141 201.086 308.901 200.967C309.846 200.8 310.045 200.366 310.098 199.48C310.185 198.213 310.185 195.746 310.185 192.879V183.497C310.185 182.924 310.132 182.604 309.673 182.604C309.214 182.604 307.124 183.637 306.406 183.984C306.307 184.056 306.189 184.096 306.066 184.097C305.98 184.097 305.86 183.951 305.86 183.837C305.873 183.778 305.898 183.722 305.933 183.672C305.969 183.623 306.014 183.582 306.066 183.551L311.589 179.85C311.779 179.683 312.008 179.566 312.254 179.51C312.487 179.51 312.574 179.823 312.574 180.11C312.574 180.397 312.461 183.177 312.427 187.571L312.421 192.879Z" fill="#BE9778"/>
<path d="M334.092 179.997C334.464 179.997 334.604 180.11 334.604 180.283C334.599 180.475 334.542 180.662 334.438 180.823C332.116 184.271 327.391 195.492 326.959 199.246C326.932 199.581 326.932 199.918 326.959 200.253C326.959 200.826 324.73 202 324.158 202C323.985 202 323.898 201.913 323.898 201.713C323.911 201.382 323.97 201.055 324.071 200.74C326.258 194.151 329.117 187.805 332.601 181.804H325.562C324.621 181.752 323.689 182.001 322.9 182.517C322.282 183.098 321.897 183.885 321.816 184.731C321.816 184.984 321.703 185.131 321.556 185.131C321.41 185.131 321.383 184.984 321.383 184.671C321.383 183.751 321.816 180.397 321.816 180.11C321.816 179.823 321.929 179.703 322.102 179.703C322.993 179.915 323.907 180.013 324.823 179.997H334.092Z" fill="#BE9778"/>
</g>
<defs>
<clipPath id="clip0">
<rect width="410" height="177" fill="white" transform="translate(36 25)"/>
</clipPath>
</defs>
</svg>
