<svg width="444" height="148" viewBox="0 0 444 148" fill="none" xmlns="http://www.w3.org/2000/svg">
<g clip-path="url(#clip0)">
<path d="M113.306 74.5577C113.306 85.4753 113.306 94.3982 113.839 99.0599C114.243 102.392 114.646 104.522 118.134 105.051C119.877 105.316 122.428 105.58 123.502 105.58C124.172 105.58 124.438 106.11 124.438 106.51C124.438 107.039 123.905 107.439 122.558 107.439C115.979 107.439 108.334 107.039 107.794 107.039C107.124 107.039 99.738 107.439 96.1137 107.439C94.9031 107.439 94.233 107.175 94.233 106.51C94.233 106.11 94.4996 105.58 95.1698 105.58C96.2434 105.58 97.7205 105.316 98.7941 105.051C101.078 104.515 101.482 102.385 101.878 99.0599C102.411 94.3982 102.548 85.4753 102.548 74.5577V54.5812C102.548 37 102.548 33.804 102.282 30.2077C102.015 26.3468 101.071 24.6166 98.5203 24.0804C97.1801 23.8158 95.703 23.68 94.8959 23.68C94.3627 23.68 93.9592 23.1509 93.9592 22.7505C93.9592 22.0856 94.4924 21.821 95.8399 21.821C99.7308 21.821 107.116 22.0856 107.786 22.0856C108.32 22.0856 115.972 21.821 119.596 21.821C120.936 21.821 121.477 22.0856 121.477 22.7505C121.477 23.1509 120.944 23.68 120.54 23.68C119.733 23.68 118.933 23.68 117.586 23.9445C114.365 24.6095 113.695 26.211 113.428 30.2006C113.291 33.7969 113.291 36.9928 113.291 54.5741V74.5577H113.306Z" fill="white"/>
<path d="M157.065 92.003C157.331 101.326 158.405 104.122 161.626 104.923C163.773 105.459 166.46 105.588 167.534 105.588C168.075 105.588 168.471 105.988 168.471 106.517C168.471 107.182 167.664 107.447 166.324 107.447C159.615 107.447 154.917 107.046 153.844 107.046C152.77 107.046 147.806 107.447 142.437 107.447C141.227 107.447 140.557 107.311 140.557 106.517C140.557 105.988 140.96 105.588 141.494 105.588C142.43 105.588 144.578 105.452 146.328 104.923C149.283 104.122 149.686 101.062 149.686 90.809V25.9464C149.686 21.4206 150.356 20.2195 151.3 20.2195C152.64 20.2195 154.658 22.486 155.861 23.68C157.742 25.546 174.92 43.6564 193.171 62.3029C204.851 74.2859 217.461 87.7418 221.085 91.4668L219.875 34.7335C219.738 27.4121 219.067 24.8811 215.443 24.2162C213.296 23.8158 210.608 23.68 209.672 23.68C208.865 23.68 208.735 23.015 208.735 22.6146C208.735 21.9497 209.672 21.8139 211.019 21.8139C216.387 21.8139 222.022 22.0784 223.369 22.0784C224.709 22.0784 228.608 21.8139 233.435 21.8139C234.646 21.8139 235.582 21.9497 235.582 22.6146C235.582 23.015 235.049 23.68 234.242 23.68C233.709 23.68 232.765 23.68 231.425 23.9445C227.534 24.7453 227.267 27.0046 227.267 33.7969L227.001 100.118C227.001 107.575 226.864 108.24 226.064 108.24C224.853 108.24 223.65 107.311 217.072 101.319C215.861 100.254 198.82 83.6092 186.34 70.6896C172.65 56.4401 159.363 42.5911 155.739 38.5944L157.065 92.003Z" fill="white"/>
<path d="M317.573 78.5545C317.573 69.367 317.307 68.0371 312.472 67.1005C311.535 66.9647 309.518 66.836 308.444 66.836C308.04 66.836 307.507 66.2998 307.507 65.9065C307.507 65.1057 308.048 64.977 309.388 64.977C314.756 64.977 322.675 65.2416 323.345 65.2416C323.878 65.2416 331.264 64.977 334.888 64.977C336.228 64.977 336.769 65.1129 336.769 65.9065C336.769 66.3069 336.235 66.836 335.832 66.836C335.025 66.836 334.225 66.836 332.878 67.1005C329.657 67.6296 328.72 69.367 328.446 73.3566C328.309 76.9529 328.309 80.2847 328.309 85.075V97.7229C328.309 102.914 328.172 103.05 326.703 103.85C319.187 107.711 308.451 108.912 301.606 108.912C292.614 108.912 275.839 107.847 262.682 96.7935C255.433 90.802 248.588 78.6831 248.588 64.5624C248.588 46.452 257.847 33.6683 268.317 27.4051C278.923 21.0132 290.733 20.2124 299.725 20.2124C307.241 20.2124 315.563 21.5423 317.847 22.0785C320.261 22.6076 324.426 23.2797 327.373 23.2797C328.583 23.2797 328.85 23.8087 328.85 24.345C328.85 25.9394 328.18 29.0066 328.18 40.3247C328.18 42.1908 327.646 42.7198 326.839 42.7198C326.169 42.7198 326.032 42.0549 326.032 40.9896C325.896 39.5239 325.225 36.1921 323.345 33.5324C320.391 29.2711 311.398 24.7454 296.101 24.7454C288.989 24.7454 280.4 25.2744 271.408 32.0667C264.563 37.2646 259.728 47.3815 259.728 60.5656C259.728 76.5454 268.05 87.9993 272.208 91.8601C281.604 100.519 291.533 103.714 302.406 103.714C306.563 103.714 312.068 103.314 315.152 101.584C316.629 100.783 317.566 100.254 317.566 98.1233V78.5545H317.573Z" fill="white"/>
<path d="M397.294 20.2195C423.868 20.2195 444 36.335 444 62.7033C444 88.0063 425.079 108.912 396.624 108.912C364.279 108.912 350.459 84.8104 350.459 64.4336C350.452 46.1945 364.682 20.2195 397.294 20.2195ZM399.975 104.251C410.581 104.251 431.917 98.6595 431.917 65.8993C431.917 38.7302 415.272 24.4807 396.617 24.4807C376.889 24.4807 362.665 36.7354 362.665 61.3663C362.665 87.7418 378.639 104.251 399.975 104.251Z" fill="white"/>
<path d="M74.8576 61.1163C74.8216 62.6678 77.3219 62.2316 77.3219 62.2316C80.8814 59.0428 80.9102 53.2444 80.9102 53.2444L79.7717 53.1443C76.1186 62.296 74.8937 59.5719 74.8576 61.1163Z" fill="white"/>
<path d="M12.0187 116.091C12.9482 117.199 14.0146 118.364 15.2251 119.587C16.1042 120.474 16.9761 121.303 17.7975 122.061H12.0187V116.091ZM9.6409 106.367V124.42H24.1959C24.1887 124.413 9.6409 113.131 9.6409 106.367Z" fill="white"/>
<path d="M68.3293 5.60551V11.5756C67.3998 10.4673 66.3334 9.30194 65.1229 8.07933C64.2438 7.19276 63.3719 6.36339 62.5505 5.60551H68.3293ZM70.6999 3.24609H56.1449C56.1449 3.24609 70.6999 14.5284 70.6999 21.2992V3.24609Z" fill="white"/>
<path d="M70.4838 64.1262C69.8714 64.2906 69.6768 64.7267 69.7561 65.7277C69.8353 66.7287 66.6145 71.1186 66.6145 71.1186C66.6145 71.1186 66.4416 68.5018 66.5136 67.9584C66.5857 67.415 65.7498 67.2077 65.0221 67.3078C64.2871 67.4079 64.1935 67.6867 64.1935 67.6867C64.424 69.0952 63.7539 70.8898 62.774 71.7407C61.794 72.5915 61.9021 73.9785 61.9021 73.9785C61.9309 77.1816 63.8764 76.6383 64.914 76.481C65.9516 76.3165 66.2038 73.6711 66.6649 74.0572C67.1261 74.4433 66.8307 76.052 66.8307 76.052C68.9851 75.7231 70.0011 72.3984 70.0515 71.5762C70.1019 70.7611 70.0515 70.6467 70.4766 70.611C70.9017 70.5752 70.9954 72.234 70.9954 72.234C75.0088 69.8603 75.1458 67.222 74.3459 65.12C73.5533 63.0322 70.4838 64.1262 70.4838 64.1262Z" fill="white"/>
<path d="M3.94863 34.3689C1.36907 39.3523 -0.828589 50.4487 0.987185 59.4288C0.987185 59.4288 6.83801 70.561 1.0016 76.1878C-3.30726 80.3347 7.45768 74.0572 12.3214 64.8626C11.4783 69.1525 11.9323 72.3127 11.9323 72.3127C12.6816 90.2872 3.49468 104.336 3.49468 104.336C17.7399 100.876 17.9272 81.8504 17.9272 81.8504C20.9247 83.4091 18.6766 99.3245 18.6766 99.3245C21.674 98.4593 22.9854 90.1585 22.9854 90.1585C28.4183 102.957 19.5556 117.521 19.5556 117.521C25.637 117.606 30.6376 100.204 31.6824 108.898C38.6285 102.184 38.751 90.4516 38.751 90.4516C41.7484 92.0103 39.5003 107.926 39.5003 107.926C42.4978 107.06 43.8092 98.7596 43.8092 98.7596C49.2421 111.558 37.2522 126.436 37.2522 126.436C42.433 126.508 47.1813 123.641 50.7552 119.666C51.4181 117.328 51.9225 114.346 51.8217 110.8C51.3821 96.0785 40.7253 83.3733 31.8626 75.3084C13.9714 59.0284 3.30734 45.9444 3.94863 34.3689Z" fill="white"/>
<path d="M81.6594 47.4601L65.7642 33.1749C67.0612 30.6797 65.5408 27.0976 64.7771 26.6686C64.0133 26.2325 64.1286 26.5829 62.3056 24.2949C60.4754 22.007 57.3699 21.5566 57.3699 21.5566L61.1311 21.2563C65.2166 16.852 60.0431 7.97203 60.2304 10.2385C60.4178 12.505 59.1568 15.2147 59.1568 15.2147C58.2921 8.7585 49.8257 3.88951 51.2812 5.56971C52.7367 7.2499 52.5638 11.1751 52.5638 11.1751C44.1118 -1.5157 30.5656 0.0643923 30.5656 0.0643923C38.787 4.00391 41.4674 8.62266 41.4674 8.62266C39.9615 6.39908 28.5625 2.41666 28.5625 2.41666C23.9942 4.3614 20.2185 8.58691 17.2355 13.2843C17.6606 12.8124 16.7671 13.749 17.2355 13.2843C15.7872 19.2186 17.2283 27.4337 24.585 41.1827C28.0725 47.6961 32.23 51.5999 39.1329 58.0775C41.5251 60.3226 44.2343 62.8607 47.4047 65.9637C48.3558 66.8932 49.2637 67.8227 50.1356 68.7378C49.6384 68.0586 49.1773 67.4652 48.8026 66.9576C47.0228 64.5695 45.5385 59.007 44.8756 56.19L46.1726 51.7L46.749 45.1222C47.9884 49.1618 48.5936 52.2433 48.5936 52.2433L50.8994 51.9645C53.868 54.2953 59.7332 51.8358 59.7332 51.8358C59.5675 52.5722 52.2612 56.905 52.2612 56.905C55.9792 60.58 61.549 58.9999 61.549 58.9999C60.7276 60.151 57.4851 61.1805 57.4851 61.1805C59.6972 63.1682 66.6577 60.7587 66.6577 60.7587C66.528 61.9456 64.3015 63.7545 64.3015 63.7545C66.5424 63.8545 69.0211 62.9179 73.0417 60.8302C77.0624 58.7496 78.3017 52.1003 78.3017 52.1003C78.3017 52.1003 77.9847 52.1289 76.2409 51.9502C74.4972 51.7715 72.422 48.7829 72.422 48.7829L71.7303 52.6294C71.0746 52.4578 70.2388 47.2457 70.2388 47.2457L69.0499 46.1231C70.2892 45.7085 72.0474 47.6389 72.0474 47.6389C74.4684 46.545 76.1329 47.9892 76.7597 48.3896C77.3866 48.79 80.2976 48.7328 81.1983 48.5755C82.1062 48.4182 81.6594 47.4601 81.6594 47.4601ZM61.7508 36.2994C61.7508 36.2994 58.3858 38.4872 56.0224 36.1206C56.0224 36.1206 54.2931 33.0176 52.6215 32.8317C52.6215 32.8317 54.5741 30.8012 57.9679 31.7593C57.9679 31.7593 61.023 33.6611 61.6283 32.0095C61.6283 32.0095 62.1038 31.652 62.3128 33.6468C62.3128 33.6468 65.2814 36.1135 65.7066 37.9939C65.7138 37.9939 63.7179 36.1349 61.7508 36.2994Z" fill="white"/>
<path d="M12.1412 15.9511C11.9251 22.6934 13.6111 31.7164 19.7358 43.1631C23.7204 50.606 28.3895 54.9888 36.1282 62.2458C38.7582 64.7125 41.734 67.5009 45.2143 70.9042C52.6935 78.2184 57.9463 85.2466 60.8213 91.7815C63.1198 97.008 63.9052 101.956 63.1558 106.489C62.4065 111.014 60.2016 114.689 57.7373 117.506C57.9031 115.976 57.9823 114.353 57.9319 112.644C57.7518 106.632 56.0873 100.476 52.9817 94.3483C49.2061 86.8982 43.2688 79.4553 35.3356 72.234C25.6515 63.4184 18.4316 55.1962 13.8633 47.7819C9.46081 40.6321 7.39284 34.0186 7.7243 28.1129C7.96208 23.8516 9.41758 19.8192 12.1412 15.9511ZM20.0312 3.15308C-5.26714 21.5423 -0.504333 44.6574 32.8065 74.9796C66.1173 105.302 50.5895 127.809 50.5895 127.809C50.5895 127.809 89.6647 109.177 47.8371 68.2731C34.1323 54.8673 28.0004 50.7061 23.0359 41.4257C8.86996 14.9359 20.0312 3.15308 20.0312 3.15308Z" fill="white"/>
<path d="M123.372 138.205C123.372 141.301 123.372 143.846 123.509 145.197C123.588 146.134 123.754 146.842 124.582 146.971C124.972 147.035 125.577 147.099 125.822 147.099C125.987 147.099 126.045 147.192 126.045 147.292C126.045 147.45 125.908 147.55 125.606 147.55C124.092 147.55 122.356 147.457 122.219 147.457C122.082 147.457 120.346 147.55 119.524 147.55C119.222 147.55 119.085 147.485 119.085 147.292C119.085 147.192 119.142 147.099 119.308 147.099C119.553 147.099 119.884 147.035 120.137 146.971C120.684 146.842 120.821 146.134 120.936 145.197C121.073 143.846 121.073 141.301 121.073 138.205V124.578L116.995 124.642C115.287 124.678 114.624 124.899 114.185 125.671C113.882 126.222 113.796 126.444 113.717 126.672C113.637 126.93 113.551 126.994 113.443 126.994C113.364 126.994 113.306 126.901 113.306 126.701C113.306 126.379 113.853 123.605 113.911 123.348C113.969 123.155 114.077 122.733 114.185 122.733C114.379 122.733 114.653 123.055 115.395 123.119C116.195 123.219 117.24 123.276 117.572 123.276H127.897C128.776 123.276 129.41 123.212 129.85 123.119C130.26 123.055 130.513 122.962 130.621 122.962C130.757 122.962 130.757 123.155 130.757 123.348C130.757 124.313 130.678 126.537 130.678 126.894C130.678 127.187 130.599 127.316 130.484 127.316C130.347 127.316 130.289 127.223 130.26 126.765L130.231 126.408C130.152 125.443 129.489 124.699 126.845 124.635L123.379 124.57V138.205H123.372Z" fill="white"/>
<path d="M135.347 134.759C135.347 130.505 135.347 129.733 135.29 128.867C135.232 127.931 135.095 127.48 134.295 127.352C134.101 127.316 133.69 127.287 133.467 127.287C133.388 127.287 133.272 127.159 133.272 127.059C133.272 126.901 133.38 126.83 133.661 126.83C134.764 126.83 136.385 126.894 136.522 126.894C136.767 126.894 138.806 126.83 139.548 126.83C141.09 126.83 142.798 126.987 144.066 128.024C144.671 128.539 145.745 129.861 145.745 131.763C145.745 133.794 145.032 135.76 142.769 138.012C144.751 140.908 146.429 143.389 147.834 145.097C149.131 146.642 149.924 146.899 150.529 146.999C150.998 147.099 151.243 147.099 151.38 147.099C151.516 147.099 151.603 147.228 151.603 147.328C151.603 147.485 151.466 147.557 151.026 147.557H149.513C148.137 147.557 147.532 147.4 146.927 147.006C145.882 146.363 144.996 145.04 143.619 142.981C142.603 141.501 141.53 139.728 141.004 138.984C140.896 138.856 140.838 138.82 140.672 138.82L137.588 138.756C137.48 138.756 137.423 138.82 137.423 138.984V139.628C137.423 142.273 137.423 144.397 137.531 145.526C137.61 146.334 137.754 146.849 138.496 146.978C138.828 147.042 139.346 147.106 139.57 147.106C139.736 147.106 139.764 147.235 139.764 147.335C139.764 147.464 139.656 147.564 139.375 147.564C138.057 147.564 136.515 147.471 136.399 147.471C136.371 147.471 134.749 147.564 134.007 147.564C133.762 147.564 133.618 147.5 133.618 147.335C133.618 147.242 133.676 147.106 133.813 147.106C134.036 147.106 134.339 147.042 134.555 146.978C135.023 146.849 135.081 146.334 135.189 145.526C135.326 144.397 135.326 142.237 135.326 139.599V134.759H135.347ZM137.444 137.082C137.444 137.24 137.502 137.34 137.61 137.44C137.97 137.669 139.21 137.862 140.283 137.862C140.86 137.862 141.522 137.833 142.099 137.376C142.928 136.732 143.562 135.281 143.562 133.186C143.562 129.768 141.962 127.809 139.375 127.809C138.662 127.809 137.891 127.902 137.639 127.967C137.531 128.031 137.444 128.131 137.444 128.288V137.082Z" fill="white"/>
<path d="M157.677 127.387C157.98 126.487 158.088 126.322 158.253 126.322C158.498 126.322 158.585 126.708 158.83 127.323C159.269 128.481 163.153 139.792 164.638 143.946C165.517 146.392 166.179 146.749 166.705 146.942C167.066 147.071 167.419 147.106 167.671 147.106C167.808 147.106 167.974 147.171 167.974 147.335C167.974 147.5 167.7 147.564 167.426 147.564C167.066 147.564 165.279 147.564 163.6 147.5C163.132 147.471 162.75 147.471 162.75 147.307C162.75 147.178 162.807 147.178 162.915 147.114C163.052 147.049 163.304 146.821 163.139 146.37L160.963 140.085C160.905 139.957 160.883 139.921 160.739 139.921H155.148C155.04 139.921 154.953 139.985 154.903 140.15L153.527 144.533C153.303 145.212 153.166 145.884 153.166 146.37C153.166 146.921 153.577 147.114 153.995 147.114H154.218C154.413 147.114 154.463 147.207 154.463 147.342C154.463 147.5 154.326 147.571 154.103 147.571C153.527 147.571 152.201 147.478 151.927 147.478C151.682 147.478 150.472 147.571 149.477 147.571C149.175 147.571 149.009 147.507 149.009 147.342C149.009 147.214 149.117 147.114 149.232 147.114C149.398 147.114 149.758 147.078 149.946 147.049C151.048 146.892 151.516 145.92 151.985 144.54L157.677 127.387ZM160.379 138.784C160.487 138.784 160.487 138.72 160.458 138.591L158.059 131.084C157.922 130.662 157.785 130.662 157.648 131.084L155.393 138.591C155.364 138.72 155.393 138.784 155.472 138.784H160.379Z" fill="white"/>
<path d="M185.951 139.592C185.951 142.23 185.98 144.39 186.088 145.519C186.167 146.327 186.225 146.842 186.967 146.971C187.299 147.035 187.846 147.099 188.041 147.099C188.207 147.099 188.264 147.228 188.264 147.328C188.264 147.457 188.127 147.557 187.853 147.557C186.535 147.557 184.993 147.464 184.856 147.464C184.748 147.464 183.177 147.557 182.457 147.557C182.183 147.557 182.067 147.493 182.067 147.328C182.067 147.235 182.125 147.099 182.262 147.099C182.485 147.099 182.759 147.035 182.975 146.971C183.473 146.842 183.552 146.291 183.638 145.491C183.746 144.361 183.746 142.302 183.746 139.664V136.925C183.746 136.797 183.689 136.761 183.609 136.761H173.507C173.428 136.761 173.37 136.797 173.37 136.925V139.664C173.37 142.302 173.37 144.397 173.479 145.526C173.558 146.334 173.644 146.849 174.358 146.978C174.718 147.042 175.237 147.106 175.46 147.106C175.597 147.106 175.655 147.235 175.655 147.335C175.655 147.464 175.547 147.564 175.266 147.564C173.918 147.564 172.376 147.471 172.268 147.471C172.131 147.471 170.589 147.564 169.847 147.564C169.602 147.564 169.458 147.5 169.458 147.335C169.458 147.242 169.516 147.106 169.652 147.106C169.876 147.106 170.178 147.042 170.395 146.978C170.863 146.849 170.921 146.334 171.029 145.526C171.166 144.397 171.166 142.237 171.166 139.599V134.766C171.166 130.512 171.166 129.74 171.108 128.875C171.05 127.938 170.913 127.488 170.114 127.359C169.919 127.323 169.508 127.294 169.285 127.294C169.206 127.294 169.09 127.166 169.09 127.066C169.09 126.908 169.199 126.837 169.48 126.837C170.582 126.837 172.124 126.901 172.261 126.901C172.369 126.901 173.911 126.837 174.653 126.837C174.927 126.837 175.042 126.901 175.042 127.066C175.042 127.166 174.934 127.294 174.848 127.294C174.682 127.294 174.516 127.295 174.242 127.359C173.579 127.516 173.443 127.902 173.392 128.875C173.363 129.747 173.363 130.583 173.363 134.83V135.409C173.363 135.567 173.421 135.567 173.5 135.567H183.602C183.682 135.567 183.739 135.567 183.739 135.409V134.83C183.739 130.576 183.71 129.74 183.682 128.875C183.624 127.938 183.516 127.488 182.716 127.359C182.521 127.323 182.111 127.294 181.887 127.294C181.779 127.294 181.693 127.166 181.693 127.066C181.693 126.908 181.801 126.837 182.082 126.837C183.156 126.837 184.726 126.901 184.834 126.901C184.971 126.901 186.513 126.837 187.227 126.837C187.5 126.837 187.637 126.901 187.637 127.066C187.637 127.166 187.529 127.294 187.414 127.294C187.248 127.294 187.111 127.295 186.809 127.359C186.175 127.516 186.038 127.902 185.98 128.875C185.922 129.747 185.922 130.519 185.922 134.766V139.592H185.951Z" fill="white"/>
<path d="M202.308 147.128C201.926 146.899 201.897 146.77 201.897 145.905C201.897 144.297 202.005 143.002 202.034 142.488C202.063 142.13 202.113 141.973 202.257 141.973C202.423 141.973 202.452 142.073 202.452 142.33C202.452 142.624 202.452 143.074 202.531 143.524C202.942 145.905 204.765 146.813 206.609 146.813C209.254 146.813 210.544 144.59 210.544 142.531C210.544 140.307 209.744 139.02 207.38 136.732L206.141 135.538C203.223 132.735 202.56 130.741 202.56 128.546C202.56 125.099 204.765 122.747 208.259 122.747C209.333 122.747 210.133 122.876 210.817 123.069C211.343 123.198 211.56 123.233 211.783 123.233C212.006 123.233 212.057 123.298 212.057 123.462C212.057 123.619 211.949 124.685 211.949 126.88C211.949 127.395 211.891 127.623 211.754 127.623C211.588 127.623 211.56 127.466 211.531 127.201C211.502 126.815 211.336 125.943 211.17 125.593C211.005 125.235 210.263 123.884 207.726 123.884C205.824 123.884 204.34 125.271 204.34 127.623C204.34 129.461 205.053 130.619 207.697 133.036L208.468 133.744C211.718 136.739 212.489 138.734 212.489 141.315C212.489 142.638 212.049 145.083 210.147 146.663C208.966 147.628 207.474 148.014 205.99 148.014C204.707 148 203.439 147.778 202.308 147.128Z" fill="white"/>
<path d="M221.33 139.592C221.33 142.23 221.33 144.39 221.438 145.519C221.517 146.327 221.604 146.842 222.317 146.971C222.677 147.035 223.196 147.099 223.42 147.099C223.556 147.099 223.614 147.228 223.614 147.328C223.614 147.457 223.506 147.557 223.225 147.557C221.878 147.557 220.307 147.464 220.199 147.464C220.062 147.464 218.549 147.557 217.807 147.557C217.562 147.557 217.417 147.493 217.417 147.328C217.417 147.235 217.475 147.099 217.612 147.099C217.835 147.099 218.138 147.035 218.354 146.971C218.823 146.842 218.902 146.327 218.988 145.519C219.096 144.39 219.125 142.23 219.125 139.592V134.759C219.125 130.505 219.125 129.733 219.067 128.867C219.01 127.931 218.822 127.516 218.297 127.387C218.023 127.323 217.72 127.294 217.554 127.294C217.446 127.294 217.36 127.166 217.36 127.066C217.36 126.908 217.468 126.837 217.749 126.837C218.549 126.837 220.062 126.901 220.199 126.901C220.307 126.901 221.878 126.837 222.62 126.837C222.894 126.837 223.009 126.901 223.009 127.066C223.009 127.166 222.901 127.294 222.814 127.294C222.649 127.294 222.483 127.295 222.209 127.359C221.546 127.516 221.409 127.902 221.359 128.875C221.33 129.747 221.33 130.519 221.33 134.766V139.592Z" fill="white"/>
<path d="M230.308 143.81C230.366 146.063 230.582 146.742 231.245 146.935C231.684 147.064 232.239 147.099 232.455 147.099C232.563 147.099 232.65 147.192 232.65 147.328C232.65 147.485 232.484 147.557 232.21 147.557C230.834 147.557 229.869 147.464 229.652 147.464C229.429 147.464 228.413 147.557 227.311 147.557C227.066 147.557 226.922 147.528 226.922 147.328C226.922 147.199 227.001 147.099 227.116 147.099C227.311 147.099 227.75 147.064 228.11 146.935C228.716 146.742 228.802 145.998 228.802 143.517V127.838C228.802 126.744 228.939 126.451 229.134 126.451C229.407 126.451 229.825 127.001 230.07 127.287C230.459 127.738 233.983 132.121 237.722 136.632C240.122 139.535 242.709 142.788 243.451 143.689L243.206 129.968C243.177 128.195 243.04 127.588 242.298 127.423C241.858 127.33 241.304 127.294 241.116 127.294C240.951 127.294 240.922 127.13 240.922 127.037C240.922 126.873 241.116 126.844 241.39 126.844C242.493 126.844 243.645 126.908 243.926 126.908C244.207 126.908 245 126.844 245.994 126.844C246.239 126.844 246.434 126.873 246.434 127.037C246.434 127.13 246.326 127.294 246.16 127.294C246.052 127.294 245.857 127.294 245.584 127.359C244.784 127.552 244.733 128.102 244.733 129.74L244.676 145.784C244.676 147.585 244.647 147.75 244.481 147.75C244.236 147.75 243.984 147.521 242.637 146.077C242.392 145.819 238.89 141.794 236.332 138.67C233.522 135.224 230.798 131.87 230.056 130.905L230.308 143.81Z" fill="white"/>
<path d="M263.237 140.557C263.237 138.334 263.179 138.012 262.192 137.783C261.998 137.755 261.587 137.719 261.364 137.719C261.284 137.719 261.169 137.59 261.169 137.49C261.169 137.297 261.277 137.261 261.558 137.261C262.661 137.261 264.282 137.326 264.419 137.326C264.527 137.326 266.04 137.261 266.789 137.261C267.063 137.261 267.178 137.29 267.178 137.49C267.178 137.59 267.07 137.719 266.984 137.719C266.818 137.719 266.652 137.719 266.379 137.783C265.716 137.912 265.528 138.334 265.471 139.299C265.442 140.171 265.442 140.972 265.442 142.137V145.197C265.442 146.456 265.413 146.484 265.11 146.677C263.568 147.614 261.364 147.9 259.959 147.9C258.114 147.9 254.67 147.643 251.975 144.969C250.491 143.517 249.086 140.586 249.086 137.175C249.086 132.793 250.988 129.704 253.135 128.188C255.311 126.644 257.732 126.451 259.577 126.451C261.119 126.451 262.826 126.773 263.295 126.901C263.792 127.03 264.642 127.194 265.247 127.194C265.492 127.194 265.55 127.323 265.55 127.452C265.55 127.838 265.413 128.581 265.413 131.32C265.413 131.77 265.305 131.899 265.139 131.899C265.002 131.899 264.974 131.734 264.974 131.477C264.945 131.12 264.808 130.319 264.426 129.675C263.821 128.646 261.976 127.552 258.834 127.552C257.372 127.552 255.614 127.681 253.769 129.325C252.364 130.583 251.37 133.029 251.37 136.217C251.37 140.085 253.077 142.852 253.928 143.789C255.859 145.884 257.891 146.656 260.124 146.656C260.975 146.656 262.106 146.563 262.74 146.141C263.042 145.948 263.237 145.819 263.237 145.305V140.557Z" fill="white"/>
<path d="M279.593 126.451C285.048 126.451 289.177 130.347 289.177 136.725C289.177 142.845 285.293 147.9 279.456 147.9C272.82 147.9 269.988 142.066 269.988 137.14C269.981 132.728 272.899 126.451 279.593 126.451ZM280.141 146.778C282.317 146.778 286.691 145.426 286.691 137.497C286.691 130.927 283.275 127.48 279.449 127.48C275.4 127.48 272.482 130.448 272.482 136.403C272.489 142.781 275.767 146.778 280.141 146.778Z" fill="white"/>
<path d="M303.933 134.759C303.933 130.505 303.933 129.733 303.876 128.867C303.818 127.931 303.681 127.48 302.881 127.352C302.687 127.316 302.276 127.287 302.053 127.287C301.974 127.287 301.858 127.159 301.858 127.059C301.858 126.901 301.966 126.83 302.247 126.83C303.35 126.83 304.834 126.894 304.971 126.894C305.194 126.894 306.65 126.83 307.363 126.83C307.637 126.83 307.752 126.894 307.752 127.059C307.752 127.159 307.673 127.287 307.558 127.287C307.392 127.287 307.255 127.287 306.952 127.352C306.318 127.509 306.153 127.895 306.095 128.867C306.037 129.74 306.037 130.512 306.037 134.759V136.403H306.145C306.535 135.888 310.851 130.898 311.766 129.797C312.457 128.989 313.084 128.281 313.084 127.831C313.084 127.473 312.976 127.316 312.782 127.28C312.645 127.244 312.558 127.116 312.558 127.023C312.558 126.894 312.666 126.83 312.832 126.83C313.329 126.83 314.071 126.894 314.648 126.894C314.785 126.894 316.384 126.83 316.99 126.83C317.235 126.83 317.35 126.894 317.35 127.023C317.35 127.151 317.292 127.252 317.105 127.252C316.745 127.252 316.226 127.409 315.758 127.638C314.763 128.152 314.295 128.767 313.221 129.954C312.616 130.598 308.487 135.238 307.961 135.917C308.595 136.725 313.632 142.616 314.626 143.682C316.665 145.805 316.939 146.163 318.092 146.713C318.726 147.006 319.411 147.099 319.576 147.099C319.742 147.099 319.879 147.192 319.879 147.328C319.879 147.457 319.771 147.557 319.353 147.557H318.114C317.429 147.557 316.982 147.557 316.435 147.493C315.167 147.364 314.533 146.749 313.488 145.819C312.385 144.818 307.291 138.541 306.138 136.932H306.03V139.606C306.03 142.245 306.03 144.404 306.138 145.533C306.218 146.341 306.333 146.856 307.075 146.985C307.406 147.049 307.788 147.114 308.012 147.114C308.149 147.114 308.206 147.242 308.206 147.342C308.206 147.471 308.098 147.571 307.824 147.571C306.643 147.571 305.18 147.478 304.985 147.478C304.791 147.478 303.335 147.571 302.593 147.571C302.348 147.571 302.204 147.507 302.204 147.342C302.204 147.249 302.262 147.114 302.399 147.114C302.615 147.114 302.925 147.049 303.141 146.985C303.609 146.856 303.667 146.341 303.775 145.533C303.912 144.404 303.912 142.245 303.912 139.606V134.759H303.933Z" fill="white"/>
<path d="M325.816 127.387C326.119 126.487 326.227 126.322 326.393 126.322C326.638 126.322 326.724 126.708 326.969 127.323C327.409 128.481 331.292 139.792 332.777 143.946C333.656 146.392 334.319 146.749 334.845 146.942C335.205 147.071 335.558 147.106 335.81 147.106C335.947 147.106 336.113 147.171 336.113 147.335C336.113 147.5 335.839 147.564 335.565 147.564C335.205 147.564 333.418 147.564 331.739 147.5C331.271 147.471 330.889 147.471 330.889 147.307C330.889 147.178 330.947 147.178 331.055 147.114C331.192 147.049 331.444 146.821 331.278 146.37L329.102 140.085C329.044 139.957 329.023 139.921 328.879 139.921H323.287C323.179 139.921 323.093 139.985 323.042 140.15L321.666 144.533C321.443 145.212 321.306 145.884 321.306 146.37C321.306 146.921 321.716 147.114 322.134 147.114H322.358C322.552 147.114 322.603 147.207 322.603 147.342C322.603 147.5 322.466 147.571 322.242 147.571C321.666 147.571 320.34 147.478 320.066 147.478C319.821 147.478 318.604 147.571 317.616 147.571C317.314 147.571 317.148 147.507 317.148 147.342C317.148 147.214 317.256 147.114 317.371 147.114C317.537 147.114 317.897 147.078 318.085 147.049C319.187 146.892 319.656 145.92 320.124 144.54L325.816 127.387ZM328.518 138.784C328.626 138.784 328.626 138.72 328.598 138.591L326.198 131.084C326.061 130.662 325.924 130.662 325.787 131.084L323.532 138.591C323.503 138.72 323.532 138.784 323.611 138.784H328.518Z" fill="white"/>
<path d="M339.312 134.759C339.312 130.505 339.312 129.733 339.254 128.867C339.197 127.931 339.06 127.48 338.26 127.352C338.065 127.316 337.655 127.287 337.431 127.287C337.352 127.287 337.237 127.159 337.237 127.059C337.237 126.901 337.345 126.83 337.626 126.83C338.728 126.83 340.35 126.894 340.486 126.894C340.731 126.894 342.771 126.83 343.513 126.83C345.055 126.83 346.762 126.987 348.031 128.024C348.636 128.539 349.709 129.861 349.709 131.763C349.709 133.794 348.996 135.76 346.734 138.012C348.715 140.908 350.394 143.389 351.799 145.097C353.096 146.642 353.889 146.899 354.494 146.999C354.962 147.099 355.207 147.099 355.344 147.099C355.481 147.099 355.568 147.228 355.568 147.328C355.568 147.485 355.431 147.557 354.991 147.557H353.478C352.102 147.557 351.496 147.4 350.891 147.006C349.846 146.363 348.96 145.04 347.584 142.981C346.568 141.501 345.494 139.728 344.968 138.984C344.86 138.856 344.803 138.82 344.637 138.82L341.553 138.756C341.445 138.756 341.387 138.82 341.387 138.984V139.628C341.387 142.273 341.387 144.397 341.495 145.526C341.575 146.334 341.719 146.849 342.461 146.978C342.792 147.042 343.311 147.106 343.534 147.106C343.7 147.106 343.729 147.235 343.729 147.335C343.729 147.464 343.621 147.564 343.347 147.564C342.028 147.564 340.486 147.471 340.371 147.471C340.342 147.471 338.721 147.564 337.979 147.564C337.734 147.564 337.59 147.5 337.59 147.335C337.59 147.242 337.648 147.106 337.784 147.106C338.001 147.106 338.303 147.042 338.527 146.978C338.995 146.849 339.053 146.334 339.161 145.526C339.298 144.397 339.298 142.237 339.298 139.599V134.759H339.312ZM341.402 137.082C341.402 137.24 341.459 137.34 341.567 137.44C341.928 137.669 343.167 137.862 344.241 137.862C344.817 137.862 345.48 137.833 346.056 137.376C346.885 136.732 347.512 135.281 347.512 133.186C347.512 129.768 345.912 127.809 343.325 127.809C342.612 127.809 341.841 127.902 341.589 127.967C341.481 128.031 341.394 128.131 341.394 128.288V137.082H341.402Z" fill="white"/>
<path d="M360.071 140.429C360.071 138.949 359.905 138.398 359.545 137.626C359.35 137.204 356.079 131.12 355.251 129.668C354.674 128.639 354.098 128.024 353.651 127.673C353.291 127.416 352.822 127.287 352.635 127.287C352.498 127.287 352.39 127.159 352.39 127.03C352.39 126.901 352.469 126.837 352.693 126.837C353.161 126.837 354.977 126.901 355.085 126.901C355.251 126.901 356.245 126.837 357.174 126.837C357.448 126.837 357.506 126.901 357.506 127.03C357.506 127.123 357.34 127.223 357.124 127.323C356.929 127.416 356.821 127.552 356.821 127.774C356.821 128.16 356.987 128.481 357.153 128.839L361.555 137.376C362.052 136.217 365.079 130.355 365.518 129.454C365.821 128.839 365.929 128.388 365.929 128.038C365.929 127.652 365.821 127.423 365.54 127.33C365.317 127.266 365.18 127.137 365.18 127.009C365.18 126.916 365.317 126.851 365.562 126.851C366.196 126.851 367.046 126.916 367.24 126.916C367.406 126.916 369.143 126.851 369.611 126.851C369.777 126.851 369.914 126.916 369.914 127.009C369.914 127.137 369.806 127.302 369.611 127.302C369.337 127.302 368.869 127.395 368.48 127.659C368.011 127.981 367.788 128.274 367.269 129.01C366.469 130.104 363.054 136.546 362.564 137.712C362.153 138.677 362.261 139.549 362.261 140.45V142.802C362.261 143.253 362.261 144.411 362.341 145.541C362.398 146.349 362.564 146.863 363.277 146.992C363.609 147.056 364.156 147.121 364.38 147.121C364.517 147.121 364.574 147.249 364.574 147.35C364.574 147.478 364.437 147.578 364.185 147.578C362.838 147.578 361.267 147.485 361.13 147.485C361.022 147.485 359.48 147.578 358.76 147.578C358.486 147.578 358.37 147.514 358.37 147.35C358.37 147.257 358.428 147.121 358.565 147.121C358.788 147.121 359.062 147.056 359.278 146.992C359.776 146.863 359.941 146.349 359.992 145.541C360.049 144.411 360.049 143.253 360.049 142.802V140.429H360.071Z" fill="white"/>
<path d="M375.736 127.387C376.038 126.487 376.146 126.322 376.312 126.322C376.557 126.322 376.644 126.708 376.889 127.323C377.328 128.481 381.212 139.792 382.696 143.946C383.575 146.392 384.238 146.749 384.764 146.942C385.124 147.071 385.478 147.106 385.73 147.106C385.867 147.106 386.032 147.171 386.032 147.335C386.032 147.5 385.759 147.564 385.485 147.564C385.124 147.564 383.337 147.564 381.659 147.5C381.19 147.471 380.808 147.471 380.808 147.307C380.808 147.178 380.866 147.178 380.974 147.114C381.111 147.049 381.363 146.821 381.197 146.37L379.021 140.085C378.964 139.957 378.942 139.921 378.798 139.921H373.207C373.099 139.921 373.012 139.985 372.962 140.15L371.585 144.533C371.362 145.212 371.225 145.884 371.225 146.37C371.225 146.921 371.636 147.114 372.054 147.114H372.277C372.472 147.114 372.522 147.207 372.522 147.342C372.522 147.5 372.385 147.571 372.162 147.571C371.585 147.571 370.26 147.478 369.986 147.478C369.741 147.478 368.523 147.571 367.536 147.571C367.233 147.571 367.068 147.507 367.068 147.342C367.068 147.214 367.176 147.114 367.291 147.114C367.457 147.114 367.817 147.078 368.004 147.049C369.107 146.892 369.575 145.92 370.043 144.54L375.736 127.387ZM378.431 138.784C378.539 138.784 378.539 138.72 378.51 138.591L376.11 131.084C375.973 130.662 375.837 130.662 375.7 131.084L373.444 138.591C373.416 138.72 373.444 138.784 373.524 138.784H378.431Z" fill="white"/>
<path d="M390.247 143.81C390.305 146.063 390.521 146.742 391.184 146.935C391.624 147.064 392.179 147.099 392.395 147.099C392.503 147.099 392.589 147.192 392.589 147.328C392.589 147.485 392.423 147.557 392.15 147.557C390.773 147.557 389.808 147.464 389.592 147.464C389.368 147.464 388.352 147.557 387.25 147.557C387.005 147.557 386.861 147.528 386.861 147.328C386.861 147.199 386.94 147.099 387.055 147.099C387.25 147.099 387.689 147.064 388.05 146.935C388.655 146.742 388.742 145.998 388.742 143.517V127.838C388.742 126.744 388.878 126.451 389.073 126.451C389.347 126.451 389.765 127.001 390.01 127.287C390.399 127.738 393.922 132.121 397.662 136.632C400.061 139.535 402.648 142.788 403.39 143.689L403.145 129.968C403.116 128.195 402.979 127.588 402.237 127.423C401.798 127.33 401.243 127.294 401.056 127.294C400.89 127.294 400.861 127.13 400.861 127.037C400.861 126.873 401.056 126.844 401.329 126.844C402.432 126.844 403.585 126.908 403.866 126.908C404.14 126.908 404.939 126.844 405.934 126.844C406.179 126.844 406.373 126.873 406.373 127.037C406.373 127.13 406.265 127.294 406.099 127.294C405.991 127.294 405.797 127.294 405.523 127.359C404.723 127.552 404.673 128.102 404.673 129.74L404.615 145.784C404.615 147.585 404.586 147.75 404.421 147.75C404.176 147.75 403.923 147.521 402.576 146.077C402.331 145.819 398.829 141.794 396.271 138.67C393.461 135.224 390.737 131.87 389.995 130.905L390.247 143.81Z" fill="white"/>
</g>
<defs>
<clipPath id="clip0">
<rect width="444" height="148" fill="white"/>
</clipPath>
</defs>
</svg>
