<svg width="35" height="35" viewBox="0 0 35 35" fill="none" xmlns="http://www.w3.org/2000/svg">
<g clip-path="url(#clip0)">
<path d="M17.8445 35.0004C17.7286 35.0004 17.6127 35.0004 17.496 34.9999C14.7525 35.0065 12.2176 34.9369 9.75243 34.7868C7.49229 34.6493 5.42923 33.8682 3.78593 32.5283C2.20032 31.2353 1.11752 29.4871 0.567703 27.3327C0.0891877 25.4571 0.0638199 23.6159 0.0395203 21.8351C0.0218963 20.5573 0.0037384 19.0433 0 17.5036C0.0037384 15.9575 0.0218963 14.4435 0.0395203 13.1657C0.0638199 11.3852 0.0891877 9.54401 0.567703 7.66813C1.11752 5.51374 2.20032 3.7655 3.78593 2.47254C5.42923 1.13259 7.49229 0.351533 9.75269 0.214013C12.2179 0.06421 14.7533 -0.00575158 17.5027 0.000924149C20.2469 -0.00495049 22.781 0.06421 25.2462 0.214013C27.5064 0.351533 29.5694 1.13259 31.2127 2.47254C32.7986 3.7655 33.8811 5.51374 34.431 7.66813C34.9095 9.54374 34.9348 11.3852 34.9591 13.1657C34.9768 14.4435 34.9952 15.9575 34.9987 17.4972V17.5036C34.9952 19.0433 34.9768 20.5573 34.9591 21.8351C34.9348 23.6156 34.9097 25.4568 34.431 27.3327C33.8811 29.4871 32.7986 31.2353 31.2127 32.5283C29.5694 33.8682 27.5064 34.6493 25.2462 34.7868C22.8854 34.9304 20.4603 35.0004 17.8445 35.0004ZM17.496 32.2655C20.1949 32.2719 22.6729 32.2038 25.0801 32.0575C26.7891 31.9536 28.2709 31.399 29.4848 30.4091C30.6068 29.494 31.3796 28.2315 31.7815 26.6566C32.1799 25.0952 32.2029 23.4188 32.225 21.7977C32.2424 20.5285 32.2606 19.0251 32.2643 17.5004C32.2606 15.9754 32.2424 14.4723 32.225 13.2031C32.2029 11.582 32.1799 9.90556 31.7815 8.34398C31.3796 6.76904 30.6068 5.50653 29.4848 4.59142C28.2709 3.60181 26.7891 3.04719 25.0801 2.94332C22.6729 2.79672 20.1949 2.72916 17.5024 2.73503C14.8041 2.72862 12.3258 2.79672 9.91852 2.94332C8.20953 3.04719 6.72779 3.60181 5.51388 4.59142C4.39182 5.50653 3.61904 6.76904 3.21716 8.34398C2.81876 9.90556 2.79579 11.5817 2.77363 13.2031C2.75627 14.4734 2.73811 15.9775 2.73438 17.5036C2.73811 19.023 2.75627 20.5274 2.77363 21.7977C2.79579 23.4188 2.81876 25.0952 3.21716 26.6566C3.61904 28.2315 4.39182 29.494 5.51388 30.4091C6.72779 31.3987 8.20953 31.9533 9.91852 32.0572C12.3258 32.2038 14.8046 32.2722 17.496 32.2655ZM17.4308 26.0453C12.7194 26.0453 8.88592 22.2121 8.88592 17.5004C8.88592 12.7887 12.7194 8.95547 17.4308 8.95547C22.1426 8.95547 25.9758 12.7887 25.9758 17.5004C25.9758 22.2121 22.1426 26.0453 17.4308 26.0453ZM17.4308 11.6898C14.227 11.6898 11.6203 14.2966 11.6203 17.5004C11.6203 20.7042 14.227 23.3109 17.4308 23.3109C20.6349 23.3109 23.2414 20.7042 23.2414 17.5004C23.2414 14.2966 20.6349 11.6898 17.4308 11.6898ZM26.9328 6.2211C25.8003 6.2211 24.882 7.13914 24.882 8.27188C24.882 9.40462 25.8003 10.3227 26.9328 10.3227C28.0655 10.3227 28.9836 9.40462 28.9836 8.27188C28.9836 7.13914 28.0655 6.2211 26.9328 6.2211Z" fill="white"/>
</g>
<defs>
<clipPath id="clip0">
<rect width="35" height="35" fill="white"/>
</clipPath>
</defs>
</svg>
