<svg width="224" height="101" viewBox="0 0 224 101" fill="none" xmlns="http://www.w3.org/2000/svg">
<path d="M115.047 54.8822C110.444 54.8822 107.114 53.8326 104.867 51.6704C103.153 50.0088 101.31 46.886 102.257 41.4302L103.02 37.0835C103.072 36.7905 103.153 36.5308 103.259 36.286C103.373 36.0227 103.527 35.7668 103.718 35.5331C104.247 34.8618 105.003 34.4242 105.84 34.2981C104.694 32.1544 104.305 29.981 104.687 27.8076C104.779 27.2921 104.889 26.8136 105.029 26.3537C105.799 23.7056 107.408 21.4506 109.676 19.8484C109.687 19.841 109.702 19.8336 109.713 19.8224C109.845 19.7297 109.977 19.6407 110.113 19.5517C112.727 17.8605 116.061 17 120.018 17C124.648 17 127.937 17.9643 130.078 19.9485C132.541 22.2295 133.4 25.6305 132.629 30.0552L132.148 32.796C131.935 34.057 131.05 35.0547 129.898 35.4441C129.975 35.611 130.045 35.7779 130.111 35.9448C130.915 37.9699 131.084 40.3472 130.614 43.0102C129.938 46.9119 128.158 49.9346 125.327 51.9968C122.706 53.9105 119.244 54.8822 115.047 54.8822Z" fill="#B3B3B3"/>
<path d="M128.188 19.6481C126.268 17.8642 123.224 17 118.892 17C115.155 17 112.027 17.7974 109.593 19.3737C109.468 19.4516 109.35 19.5331 109.233 19.6185C109.222 19.6296 109.211 19.637 109.2 19.6407C107.126 21.1057 105.686 23.1196 104.982 25.5452C104.853 25.9717 104.75 26.4094 104.673 26.8656C104.236 29.3357 104.938 31.8057 106.751 34.2536H105.224C104.519 34.2536 103.877 34.5837 103.465 35.1066C103.341 35.2587 103.241 35.4256 103.161 35.6073C103.087 35.7742 103.036 35.9485 103.003 36.1377L102.243 40.4845C101.38 45.4432 103.003 48.236 104.519 49.7047C106.542 51.6518 109.615 52.6013 113.921 52.6013C117.879 52.6013 121.113 51.7038 123.544 49.9309C126.124 48.0505 127.754 45.2726 128.379 41.6676C128.812 39.2123 128.661 37.0427 127.938 35.2253C127.677 34.5726 127.336 33.9383 126.917 33.3412H127.692C128.786 33.3412 129.726 32.5475 129.913 31.4571L130.39 28.7163C131.092 24.7033 130.354 21.6509 128.188 19.6481ZM113.422 40.4288C113.359 40.7812 113.33 41.0668 113.319 41.2967C113.227 41.3264 113.117 41.3412 112.974 41.3412C112.934 41.3412 112.596 41.3375 112.544 41.2374C112.515 41.1743 112.365 40.7886 112.574 39.5758L112.963 37.3542C113.414 37.7993 113.657 38.1108 113.793 38.3222L113.422 40.4288ZM116.921 26.35C116.55 26.35 116.256 26.4242 116.028 26.5763C115.889 26.669 115.827 26.758 115.793 26.8544C115.827 26.9397 115.922 27.1215 116.205 27.4516C115.235 26.5688 115.004 26.1349 114.949 25.9977C114.982 25.9013 115.045 25.8085 115.184 25.7195C115.408 25.5675 115.709 25.4933 116.087 25.4933C116.586 25.4933 116.803 25.6008 116.854 25.6639C116.902 25.7344 116.961 25.9458 116.921 26.35Z" fill="black"/>
<path d="M113.792 38.3222L113.421 40.4288C113.359 40.7812 113.329 41.0667 113.318 41.2967C113.227 41.3264 113.117 41.3412 112.973 41.3412C112.933 41.3412 112.595 41.3375 112.544 41.2374C112.514 41.1743 112.364 40.7886 112.573 39.5758L112.962 37.3542C113.414 37.7955 113.656 38.1108 113.792 38.3222Z" fill="#604B3B"/>
<path d="M115.793 26.8582C115.826 26.9435 115.921 27.1252 116.204 27.4553C115.235 26.5726 115.004 26.1386 114.949 26.0014C114.982 25.905 115.044 25.8123 115.183 25.7232C115.407 25.5712 115.708 25.497 116.087 25.497C116.586 25.497 116.803 25.6046 116.854 25.6676C116.905 25.7381 116.96 25.9458 116.92 26.35C116.549 26.35 116.256 26.4242 116.028 26.5763C115.888 26.669 115.826 26.7617 115.793 26.8582Z" fill="#604B3B"/>
<path d="M125.54 20.7571C125.448 20.6718 125.349 20.5865 125.246 20.5086C126.363 21.9736 126.682 24.1136 126.197 26.899L125.72 29.6435H118.954C119.027 29.6954 119.093 29.7474 119.167 29.7956L120.158 30.4966H126.564L127.042 27.752C127.603 24.555 127.093 22.2036 125.54 20.7571ZM124.721 35.5072C124.299 34.4465 123.576 33.4562 122.574 32.5587C123.15 33.2189 123.583 33.9198 123.877 34.6542C124.442 36.071 124.542 37.8215 124.189 39.854C123.671 42.8507 122.346 45.1428 120.254 46.6635C118.22 48.1507 115.422 48.8999 111.953 48.8999C108.524 48.8999 106.068 48.262 104.471 46.9527C104.618 47.1419 104.783 47.3162 104.955 47.4868C106.534 49.0112 109.1 49.7529 112.797 49.7529C116.27 49.7529 119.064 49 121.098 47.5165C123.191 45.9959 124.516 43.7001 125.034 40.707C125.386 38.6746 125.283 36.924 124.721 35.5072ZM116.028 26.58C116.255 26.4279 116.546 26.3538 116.92 26.3538C116.96 25.9495 116.902 25.7381 116.854 25.6713C116.803 25.6083 116.59 25.5007 116.087 25.5007C115.708 25.5007 115.411 25.5749 115.183 25.727C115.044 25.8197 114.982 25.9087 114.949 26.0051C115.007 26.1424 115.239 26.5763 116.204 27.459C115.921 27.1289 115.826 26.9472 115.793 26.8619C115.826 26.7617 115.888 26.669 116.028 26.58ZM112.962 37.3542L112.573 39.5758C112.364 40.7886 112.518 41.1781 112.544 41.2374C112.595 41.3338 112.933 41.3412 112.973 41.3412C113.113 41.3412 113.227 41.3227 113.318 41.2967C113.329 41.0668 113.359 40.7849 113.421 40.4289L113.792 38.3222C113.656 38.1108 113.414 37.7956 112.962 37.3542Z" fill="#FEA621"/>
<path d="M123.088 21.3727C123.708 22.363 123.844 23.8688 123.499 25.8493L123.381 26.5095H119.13C119.126 26.5429 119.119 26.5837 119.115 26.6171L119.035 27.077H123.848L123.961 26.4168C124.384 24.006 124.09 22.3074 123.088 21.3727ZM121.751 35.3663C121.527 34.7951 121.175 34.2499 120.694 33.7269C120.947 34.0756 121.146 34.4316 121.292 34.7988C121.704 35.8373 121.773 37.1836 121.491 38.8006C121.08 41.1743 120.121 42.8767 118.568 44.0116C116.96 45.1799 114.651 45.7696 111.685 45.7696C108.608 45.7696 106.453 45.1984 105.293 44.0746C105.275 44.0561 105.26 44.0413 105.249 44.0227C105.396 44.249 105.565 44.4567 105.756 44.6421C106.916 45.7696 109.071 46.337 112.155 46.337C115.114 46.337 117.43 45.7436 119.031 44.579C120.58 43.4478 121.542 41.7418 121.95 39.3681C122.236 37.751 122.166 36.401 121.751 35.3663ZM118.245 23.3496C117.753 22.6931 116.938 22.363 115.822 22.363C114.978 22.363 114.225 22.5781 113.59 23.0009C112.849 23.4905 112.379 24.1915 112.232 25.0223C112.118 25.6787 112.309 26.4168 113.293 27.5072C112.716 26.7209 112.606 26.1275 112.694 25.5934C112.841 24.7626 113.307 24.0617 114.053 23.5721C114.688 23.1493 115.437 22.9342 116.285 22.9342C117.203 22.9342 117.915 23.1567 118.411 23.6018C118.359 23.509 118.308 23.4274 118.245 23.3496ZM112.573 33.4339C112.342 33.2522 111.993 32.9777 111.531 32.6254C110.33 31.7019 109.35 30.7932 108.583 29.9142C109.394 30.9675 110.532 32.0654 111.993 33.1966C112.456 33.5489 112.812 33.8234 113.039 34.0051C113.906 34.6875 114.589 35.3106 115.092 35.8669C114.581 35.166 113.752 34.3574 112.573 33.4339ZM110.337 39.0899L110.686 37.102H110.121L109.871 38.5188C109.64 39.8577 109.684 40.8405 110.025 41.5267C110.132 41.7492 110.293 41.994 110.55 42.2054C110.528 42.1646 110.51 42.1312 110.495 42.0978C110.154 41.4117 110.106 40.4288 110.337 39.0899Z" fill="#808080"/>
<path d="M123.932 20.4641C122.669 19.2958 120.331 18.7098 116.92 18.7098C113.825 18.7098 111.332 19.318 109.445 20.542C107.562 21.7622 106.42 23.5016 106.024 25.7566C105.579 28.3305 107.305 31.127 111.204 34.146C111.659 34.4947 112.004 34.7543 112.243 34.9434C113.631 36.0375 114.508 36.9425 114.875 37.662C115.242 38.3741 115.341 39.1864 115.183 40.1099C115.07 40.7663 114.816 41.2782 114.427 41.6416C114.038 42.0125 113.553 42.1942 112.973 42.1942C112.254 42.1942 111.78 41.9495 111.538 41.4636C111.303 40.974 111.277 40.1803 111.464 39.0899L112.012 35.9634H104.192L103.601 39.3681C103.109 42.1683 103.538 44.2267 104.886 45.5248C106.233 46.8303 108.583 47.4794 111.949 47.4794C115.195 47.4794 117.742 46.8081 119.593 45.458C121.447 44.108 122.607 42.083 123.077 39.3718C123.4 37.5433 123.312 36.019 122.831 34.7988C122.346 33.5749 121.388 32.4622 119.967 31.4608C119.622 31.2197 119.141 30.8822 118.521 30.4409C115.235 28.0932 113.667 26.4761 113.818 25.5934C113.902 25.1261 114.152 24.7552 114.563 24.4808C114.974 24.2063 115.481 24.0728 116.087 24.0728C116.883 24.0728 117.438 24.2842 117.75 24.6922C118.062 25.1076 118.139 25.7455 117.985 26.6171L117.709 28.2193H124.773L125.089 26.4205C125.581 23.6129 125.195 21.6286 123.932 20.4641ZM113.043 34.0051C112.812 33.8234 112.456 33.5489 111.997 33.1966C110.536 32.0691 109.398 30.9713 108.586 29.9142C109.354 30.7895 110.334 31.7019 111.534 32.6254C111.997 32.9777 112.346 33.2522 112.577 33.4339C113.755 34.3574 114.585 35.166 115.095 35.8669C114.592 35.3069 113.91 34.6875 113.043 34.0051ZM109.875 38.5188L110.124 37.102H110.69L110.341 39.0899C110.11 40.4288 110.161 41.4154 110.499 42.0978C110.514 42.1312 110.532 42.1646 110.554 42.2054C110.301 41.994 110.135 41.7492 110.029 41.5267C109.688 40.8442 109.644 39.8577 109.875 38.5188ZM121.751 35.3662C122.17 36.4047 122.236 37.751 121.95 39.3681C121.538 41.7418 120.58 43.4441 119.031 44.579C117.43 45.7473 115.114 46.337 112.155 46.337C109.071 46.337 106.916 45.7659 105.756 44.6421C105.565 44.4529 105.396 44.249 105.249 44.0227C105.26 44.0413 105.275 44.0561 105.293 44.0746C106.453 45.2021 108.608 45.7696 111.685 45.7696C114.651 45.7696 116.96 45.1762 118.568 44.0116C120.118 42.8804 121.076 41.1743 121.491 38.8006C121.773 37.1836 121.704 35.8336 121.292 34.7988C121.146 34.4353 120.947 34.0756 120.694 33.7269C121.175 34.2499 121.524 34.7951 121.751 35.3662ZM116.285 22.9342C115.44 22.9342 114.688 23.1493 114.053 23.5721C113.307 24.0617 112.841 24.7626 112.694 25.5934C112.603 26.1275 112.716 26.7209 113.293 27.5072C112.313 26.4205 112.122 25.6787 112.232 25.0222C112.379 24.1915 112.845 23.4905 113.59 23.0009C114.229 22.5781 114.978 22.363 115.822 22.363C116.938 22.363 117.757 22.6931 118.245 23.3496C118.308 23.4274 118.359 23.509 118.407 23.598C117.911 23.1567 117.203 22.9342 116.285 22.9342ZM123.961 26.4205L123.848 27.0807H119.035L119.115 26.6208C119.119 26.5874 119.126 26.5466 119.13 26.5132H123.381L123.499 25.853C123.844 23.8725 123.708 22.3667 123.088 21.3764C124.09 22.3074 124.384 24.006 123.961 26.4205Z" fill="white"/>
<path d="M129.281 54.2109C128.279 54.2109 127.332 53.7659 126.689 52.987C126.047 52.2193 125.775 51.2067 125.948 50.2054L131.234 19.9114C131.33 19.3588 131.568 18.8284 131.913 18.3797C132.567 17.5563 133.532 17.089 134.564 17.089H144.073C145.075 17.089 146.022 17.5341 146.661 18.3129C147.303 19.0806 147.575 20.0932 147.403 21.0946L142.116 51.3885C141.826 53.0241 140.427 54.2072 138.786 54.2072H129.281V54.2109Z" fill="#B3B3B3"/>
<path d="M145.171 19.764L139.884 50.0542C139.693 51.1409 138.757 51.9346 137.663 51.9346H128.154C127.49 51.9346 126.858 51.6379 126.429 51.1224C125.999 50.6106 125.82 49.9244 125.933 49.2642L126.113 48.2332L131.22 18.974C131.286 18.5883 131.451 18.2397 131.675 17.9504C132.09 17.4274 132.736 17.0974 133.437 17.0974H142.946C143.61 17.0974 144.242 17.3941 144.671 17.9133C145.105 18.4214 145.285 19.1038 145.171 19.764Z" fill="black"/>
<path d="M141.543 18.8025L136.253 49.0853H126.744L126.891 48.2323H135.409L140.548 18.8025H141.543Z" fill="#FEA621"/>
<path d="M137.461 19.9411L133.07 45.0983H128.672L128.569 45.6694H133.529L138.026 19.9411H137.461Z" fill="#808080"/>
<path d="M132.134 18.8025L127.247 46.8081H134.461L139.348 18.8025H132.134ZM133.533 45.6694H128.569L128.672 45.0983H133.066L137.461 19.9411H138.026L133.533 45.6694Z" fill="white"/>
<path d="M154.32 54.4891C154.067 54.4891 153.813 54.4595 153.567 54.4038C153.321 54.4595 153.068 54.4891 152.811 54.4891H142.807C141.801 54.4891 140.857 54.0441 140.215 53.2652C139.576 52.4975 139.304 51.485 139.473 50.4836L144.76 20.1896C144.789 20.0339 144.822 19.9003 144.866 19.7668C145.028 19.2068 145.369 18.6579 145.847 18.2277C146.478 17.6713 147.271 17.3709 148.09 17.3709H156.838C157.316 17.3709 157.789 17.4748 158.219 17.6713C158.652 17.4748 159.126 17.3709 159.603 17.3709H169.563C170.565 17.3709 171.513 17.816 172.151 18.5948C172.794 19.3589 173.065 20.3751 172.893 21.3765L167.606 51.6704C167.316 53.306 165.918 54.4891 164.276 54.4891H154.32Z" fill="#B3B3B3"/>
<path d="M170.653 20.045L165.366 50.3352C165.175 51.4219 164.239 52.2156 163.145 52.2156H153.188C152.931 52.2156 152.675 52.1711 152.432 52.0858C152.197 52.1711 151.944 52.2156 151.676 52.2156H141.672C141.007 52.2156 140.376 51.9189 139.946 51.3997C139.517 50.8878 139.337 50.2054 139.451 49.5415L144.737 19.2513C144.756 19.1586 144.778 19.0733 144.807 18.988C144.924 18.5726 145.156 18.2202 145.468 17.9421C145.868 17.5897 146.393 17.3709 146.962 17.3709H155.711C156.217 17.3709 156.702 17.5415 157.091 17.8494C157.473 17.5489 157.961 17.3709 158.475 17.3709H168.435C169.1 17.3709 169.731 17.6676 170.161 18.1869C170.587 18.6987 170.767 19.3811 170.653 20.045Z" fill="black"/>
<path d="M152.763 36.7274L150.553 49.3635H140.548L140.695 48.5105H149.708L152.351 33.3746C152.476 33.9681 152.575 34.5652 152.645 35.1697C152.708 35.6815 152.744 36.2045 152.763 36.7274Z" fill="#FEA621"/>
<path d="M155.924 21.2393L155.795 21.9922C155.784 21.9699 155.777 21.9476 155.766 21.9254C155.288 20.7682 154.774 19.7223 154.246 18.7988H154.584L154.918 19.3477C155.259 19.9226 155.597 20.5568 155.924 21.2393Z" fill="#FEA621"/>
<path d="M167.305 19.0807L162.018 49.3635H152.065L152.208 48.5105H161.174L166.313 19.0807H167.305Z" fill="#FEA621"/>
<path d="M151.089 24.0802L147.373 45.3765H142.476L142.373 45.9476H147.836L151.496 24.9555L151.089 24.0802ZM153.658 22.949C153.24 21.9402 152.803 21.0241 152.344 20.2193H152.194C152.539 20.8795 152.869 21.6027 153.192 22.3779C153.695 23.5832 154.169 24.9295 154.591 26.3871L154.866 26.3241C154.492 25.1039 154.088 23.9801 153.658 22.949ZM163.226 20.2193L158.835 45.3765H153.989L153.886 45.9476H159.297L163.787 20.2193H163.226Z" fill="#808080"/>
<path d="M157.447 19.0807L156.236 26.0274L156.037 26.0682C155.637 24.7293 155.197 23.4868 154.73 22.3593C154.213 21.1169 153.669 20.0264 153.1 19.0807H145.938L141.051 47.0863H148.768L152.01 28.5123C152.928 30.4891 153.515 32.5661 153.761 34.758C154.015 36.9462 153.93 39.2272 153.519 41.6046L152.561 47.0863H160.226L165.113 19.0807H157.447ZM147.836 45.9476H142.373L142.476 45.3765H147.373L151.089 24.0802L151.496 24.9555L147.836 45.9476ZM153.192 22.3779C152.869 21.6027 152.539 20.8795 152.194 20.2193H152.344C152.799 21.0204 153.24 21.9402 153.658 22.949C154.088 23.9801 154.492 25.1076 154.866 26.3241L154.591 26.3871C154.165 24.9296 153.691 23.5832 153.192 22.3779ZM159.294 45.9476H153.882L153.985 45.3765H158.831L163.222 20.2193H163.787L159.294 45.9476Z" fill="white"/>
<path d="M178.088 55.9356C173.374 55.9356 170.055 54.6931 167.944 52.1377C165.844 49.5897 165.231 46.0107 166.068 41.2003L167.805 31.2494C167.856 30.9416 167.915 30.6338 167.984 30.3333L168.051 29.9402C168.748 25.9383 170.198 23.0232 172.357 21.2726C173.345 20.4641 174.574 19.8299 176.01 19.3996C178.117 18.5318 180.669 18.0941 183.598 18.0941C188.382 18.0941 191.774 19.2327 193.962 21.5767C196.268 24.0468 197.024 27.637 196.213 32.2508L192.641 52.7497C192.354 54.389 190.952 55.5758 189.311 55.5758H184.487C184.013 55.5758 183.547 55.4757 183.114 55.2828C182.927 55.3384 182.739 55.3867 182.548 55.4349C181.223 55.7687 179.722 55.9356 178.088 55.9356Z" fill="#B3B3B3"/>
<path d="M193.976 30.9156L190.404 51.4182C190.213 52.5123 189.277 53.3023 188.183 53.3023H183.355C182.904 53.3023 182.471 53.1651 182.103 52.9203C181.788 53.0241 181.472 53.1131 181.149 53.1947C179.897 53.51 178.487 53.662 176.956 53.662C172.595 53.662 169.559 52.5531 167.679 50.2759C165.803 47.9986 165.271 44.7237 166.049 40.2657L167.785 30.3148C167.837 30.0144 167.892 29.7177 167.962 29.4247L168.035 28.9982C168.685 25.2819 169.996 22.5967 171.938 21.0241C172.833 20.2898 173.95 19.726 175.256 19.3403C177.243 18.5132 179.655 18.0978 182.471 18.0978C186.927 18.0978 190.052 19.1215 192.012 21.2244C194.061 23.4163 194.722 26.6764 193.976 30.9156Z" fill="black"/>
<path d="M176.839 37.0575L176.736 37.0538L176.207 40.0839C175.994 41.293 176.02 41.8086 176.049 41.9903C176.13 42.02 176.292 42.0571 176.604 42.0719C176.615 41.7715 176.655 41.3153 176.773 40.6551L177.401 37.0612H176.839V37.0575ZM177.507 37.0575L177.404 37.6287H178.792L178.887 37.0575H177.507ZM180.018 26.3093C179.926 26.2907 179.779 26.2759 179.567 26.2759C178.975 26.2759 178.77 26.3909 178.744 26.4057C178.744 26.4057 178.546 26.6801 178.355 27.7557L177.933 30.1813H178.597L178.917 28.3232C179.108 27.2476 179.306 26.9731 179.306 26.9731C179.335 26.9546 179.504 26.8582 179.992 26.847C180.025 26.5874 180.025 26.4168 180.018 26.3093Z" fill="black"/>
<path d="M188.965 21.9328C188.837 21.7956 188.701 21.6657 188.561 21.5471C189.964 23.1864 190.375 25.7269 189.791 29.0983L186.212 49.6008H181.578L181.949 50.172H186.773L190.353 29.6694C190.962 26.172 190.492 23.5684 188.965 21.9328ZM180.84 48.7663C180.125 49.1038 179.39 49.3709 178.638 49.5526C177.566 49.8197 176.332 49.9569 174.985 49.9569C171.828 49.9569 169.562 49.3301 168.086 48.0431C169.518 49.7158 171.96 50.5243 175.55 50.5243C176.898 50.5243 178.131 50.3871 179.203 50.1201C179.908 49.9495 180.591 49.7121 181.255 49.4043L180.84 48.7663ZM176.839 37.3431L176.736 37.3357L176.207 40.3658C175.994 41.5712 176.02 42.0904 176.049 42.2721C176.13 42.3018 176.292 42.3389 176.604 42.3537C176.615 42.0533 176.655 41.5971 176.773 40.937L177.4 37.3431H176.839ZM180.018 26.5911C179.926 26.5726 179.779 26.5577 179.567 26.5577C178.975 26.5577 178.77 26.6727 178.744 26.6875C178.744 26.6875 178.546 26.962 178.355 28.0376L177.933 30.4631H178.597L178.917 28.605C179.108 27.5294 179.306 27.255 179.306 27.255C179.335 27.2364 179.504 27.14 179.992 27.1289C180.025 26.8693 180.025 26.6987 180.018 26.5911ZM177.507 37.3431L177.404 37.9142H178.792L178.887 37.3431H177.507Z" fill="#FEA621"/>
<path d="M187.302 21.573C186.024 20.2007 183.66 19.5183 180.216 19.5183C176.703 19.5183 174.082 20.2193 172.36 21.6249C170.634 23.0269 169.467 25.4525 168.865 28.9091L167.128 38.8563C166.537 42.235 166.835 44.6421 168.024 46.0885C169.214 47.5276 171.442 48.2471 174.706 48.2471C175.969 48.2471 177.103 48.1284 178.094 47.8762C179.082 47.6314 180.033 47.2383 180.94 46.7079L181.711 47.8873H184.982L187.926 31.0306H178.707L177.907 35.6333H179.952L179.416 38.6968L179.302 39.357C179.031 40.9073 178.693 41.8901 178.3 42.3018C177.903 42.7172 177.279 42.9212 176.428 42.9212C175.598 42.9212 175.058 42.7283 174.809 42.3389C174.563 41.9532 174.563 41.0408 174.816 39.6018L176.824 28.0858L176.964 27.2661C177.151 26.2128 177.397 25.5452 177.713 25.2633C178.028 24.9852 178.553 24.8479 179.284 24.8479C180 24.8479 180.466 24.9963 180.686 25.3041C180.91 25.612 180.921 26.3352 180.719 27.4664L180.374 29.4729H188.187L188.389 28.3268C188.943 25.1966 188.576 22.9416 187.302 21.573ZM183.587 46.1813L186.028 32.1729H186.593L184.053 46.7524H182.434L182.067 46.1813H183.587ZM179.229 34.4947L179.332 33.9235H180.815L180.712 34.4947H179.229ZM177.533 46.2109C178.399 45.9958 179.24 45.6472 180.029 45.1873L180.965 44.6347L181.362 45.2429L180.495 45.7547C179.706 46.2146 178.865 46.5633 178.003 46.7784C177.11 47.0009 176.068 47.1085 174.904 47.1085C171.967 47.1085 169.966 46.4928 168.964 45.28C168.887 45.1836 168.806 45.076 168.733 44.9685C169.797 46.0107 171.714 46.541 174.445 46.541C175.602 46.541 176.644 46.4335 177.533 46.2109ZM179.482 23.7093C178.421 23.7093 177.621 23.9578 177.037 24.477C176.457 24.9963 176.086 25.8567 175.837 27.2661L173.689 39.6018C173.395 41.2485 173.406 42.2833 173.729 42.9212C173.582 42.8025 173.454 42.6579 173.351 42.4984C172.951 41.879 172.911 40.8071 173.223 39.0306L175.374 26.6949C175.624 25.2819 175.987 24.4214 176.574 23.9059C177.155 23.3866 177.955 23.1382 179.02 23.1382C180.062 23.1382 180.796 23.4163 181.197 23.9689C181.248 24.0431 181.292 24.1173 181.332 24.2026C180.91 23.8762 180.29 23.7093 179.482 23.7093ZM187.269 28.3268L187.265 28.3343H181.703L181.799 27.7631H186.799V27.7557C187.221 25.319 187.06 23.4905 186.285 22.3111C186.325 22.3407 186.362 22.3778 186.399 22.4186C187.46 23.5573 187.753 25.5452 187.269 28.3268Z" fill="white"/>
<path d="M180.815 33.9272L180.712 34.4947H179.229L179.332 33.9272H180.815Z" fill="#808080"/>
<path d="M187.269 28.3269L187.265 28.3343H181.703L181.799 27.7631H186.799V27.7557C187.221 25.319 187.06 23.4905 186.285 22.3111C186.325 22.3408 186.362 22.3779 186.399 22.4187C187.46 23.5573 187.754 25.5452 187.269 28.3269Z" fill="#808080"/>
<path d="M181.362 45.243L180.495 45.7548C179.706 46.2147 178.865 46.5633 178.003 46.7784C177.11 47.001 176.068 47.1085 174.904 47.1085C171.967 47.1085 169.966 46.4928 168.964 45.28C168.887 45.1836 168.806 45.0761 168.733 44.9685C169.797 46.0107 171.714 46.5411 174.445 46.5411C175.605 46.5411 176.648 46.4335 177.54 46.211C178.406 45.9959 179.247 45.6472 180.036 45.1873L180.973 44.6347L181.362 45.243Z" fill="#808080"/>
<path d="M186.593 32.173L184.049 46.7525H182.434L182.067 46.1813H183.587L186.028 32.173H186.593Z" fill="#808080"/>
<path d="M181.332 24.2063C180.91 23.8762 180.29 23.7093 179.482 23.7093C178.421 23.7093 177.621 23.9578 177.037 24.4771C176.457 24.9963 176.086 25.8568 175.837 27.2661L173.689 39.6018C173.395 41.2485 173.406 42.2833 173.729 42.9212C173.582 42.8025 173.454 42.6579 173.351 42.4984C172.951 41.879 172.911 40.8072 173.223 39.0306L175.374 26.695C175.624 25.2819 175.987 24.4214 176.574 23.9059C177.155 23.3867 177.955 23.1382 179.02 23.1382C180.062 23.1382 180.796 23.4163 181.197 23.969C181.248 24.0469 181.292 24.121 181.332 24.2063Z" fill="#808080"/>
<path d="M205.544 57C200.548 57 197.016 55.8985 194.74 53.6287C192.207 51.0918 191.399 47.4312 192.265 42.4428L194.09 31.9764C194.211 31.2569 194.369 30.5522 194.556 29.8846C195.283 26.5503 196.704 24.0765 198.775 22.5336C199.05 22.3297 199.351 22.1294 199.674 21.9402C202.284 20.071 205.79 19.1623 210.391 19.1623C215.387 19.1623 218.923 20.2712 221.195 22.5559C223.721 25.1002 224.529 28.7534 223.662 33.7233L221.838 44.1859C221.045 48.7107 219.231 52.0487 216.452 54.1071C213.823 56.0543 210.255 57 205.544 57Z" fill="#B3B3B3"/>
<path d="M219.074 22.1887C217.051 20.1563 213.806 19.1623 209.147 19.1623C204.8 19.1623 201.503 20.0042 199.106 21.7399C198.812 21.9106 198.533 22.0923 198.272 22.2889C196.448 23.6463 195.185 25.8827 194.524 28.9351C194.344 29.5693 194.194 30.2369 194.076 30.9379L192.251 41.4006C191.462 45.9588 192.152 49.2485 194.377 51.4738C196.4 53.4952 199.645 54.4817 204.304 54.4817C208.747 54.4817 212.073 53.6138 214.474 51.8336C216.989 49.9718 218.633 46.9008 219.371 42.7098L221.196 32.2471C221.981 27.7075 221.291 24.4252 219.074 22.1887ZM206.206 28.8906L204.062 41.1669C203.838 42.4687 203.614 42.8137 203.614 42.8211C203.577 42.8545 203.401 42.9398 202.979 42.9398C202.883 42.9398 202.81 42.9323 202.755 42.9249C202.755 42.6987 202.788 42.2907 202.906 41.6046L205.05 29.3283C205.163 28.6533 205.281 28.2379 205.362 27.9931C205.45 27.7483 205.505 27.6667 205.505 27.6667C205.523 27.6407 205.692 27.5517 206.103 27.5517C206.21 27.5517 206.29 27.5591 206.353 27.5666C206.353 27.7965 206.323 28.2045 206.206 28.8906Z" fill="black"/>
<path d="M206.348 27.5703C206.356 27.7965 206.323 28.2045 206.205 28.8907L204.061 41.167C203.837 42.4688 203.613 42.8137 203.613 42.8211C203.577 42.8545 203.4 42.9398 202.978 42.9398C202.883 42.9398 202.809 42.9324 202.754 42.925C202.754 42.6987 202.787 42.2907 202.905 41.6046L205.049 29.3283C205.163 28.6533 205.28 28.2379 205.361 27.9931C205.449 27.7483 205.504 27.6667 205.504 27.6667C205.522 27.6408 205.691 27.5518 206.103 27.5518C206.205 27.5555 206.286 27.5629 206.348 27.5703Z" fill="black"/>
<path d="M206.099 27.5554C205.688 27.5554 205.519 27.6444 205.5 27.6704C205.5 27.6704 205.445 27.752 205.357 27.9968C205.276 28.2415 205.159 28.6569 205.045 29.3319L202.901 41.6082C202.784 42.2944 202.751 42.7024 202.751 42.9286C202.806 42.936 202.883 42.9434 202.975 42.9434C203.397 42.9434 203.573 42.8544 203.61 42.8248C203.61 42.8173 203.834 42.4724 204.058 41.1706L206.202 28.8943C206.319 28.2082 206.352 27.8002 206.345 27.5739C206.286 27.5628 206.205 27.5554 206.099 27.5554ZM216.07 23.3421C215.919 23.1901 215.754 23.0454 215.578 22.9082C216.812 24.5253 217.135 26.936 216.555 30.2369L214.73 40.7033C214.113 44.2341 212.799 46.7636 210.82 48.236C208.86 49.6824 206.011 50.3945 202.119 50.3945C198.536 50.3945 196.014 49.7826 194.432 48.5438C194.567 48.7255 194.718 48.8962 194.879 49.0593C196.41 50.5874 199.083 51.3366 203.052 51.3366C206.943 51.3366 209.792 50.6245 211.753 49.178C213.735 47.7056 215.046 45.1762 215.662 41.6453L217.487 31.1827C218.133 27.5146 217.667 24.9518 216.07 23.3421ZM203.613 42.821C203.613 42.8136 203.837 42.4687 204.061 41.1669L206.205 28.8906C206.323 28.2044 206.356 27.7965 206.348 27.5702C206.286 27.5628 206.205 27.5554 206.099 27.5554C205.688 27.5554 205.519 27.6444 205.5 27.6704C205.5 27.6704 205.445 27.752 205.357 27.9968C205.276 28.2415 205.159 28.6569 205.045 29.3319L202.901 41.6082C202.784 42.2944 202.751 42.7024 202.751 42.9286C202.806 42.936 202.883 42.9434 202.975 42.9434C203.4 42.9434 203.577 42.8544 203.613 42.821Z" fill="#FEA621"/>
<path d="M208.019 25.0149C207.615 24.4103 206.873 24.0951 205.809 24.0951C204.737 24.0951 203.878 24.4215 203.268 25.0594C202.703 25.638 202.339 26.5689 202.06 28.1674L199.92 40.4437C199.637 42.0608 199.678 42.9991 200.045 43.5777C200.159 43.7483 200.295 43.8967 200.456 44.0191C200.184 43.4331 200.184 42.5281 200.438 41.0742L202.582 28.7979C202.861 27.1994 203.217 26.2685 203.782 25.6899C204.399 25.0557 205.251 24.7256 206.33 24.7256C207.101 24.7256 207.707 24.8962 208.136 25.2226C208.096 25.1484 208.059 25.0779 208.019 25.0149ZM208.019 25.0149C207.615 24.4103 206.873 24.0951 205.809 24.0951C204.737 24.0951 203.878 24.4215 203.268 25.0594C202.703 25.638 202.339 26.5689 202.06 28.1674L199.92 40.4437C199.637 42.0608 199.678 42.9991 200.045 43.5777C200.159 43.7483 200.295 43.8967 200.456 44.0191C200.184 43.4331 200.184 42.5281 200.438 41.0742L202.582 28.7979C202.861 27.1994 203.217 26.2685 203.782 25.6899C204.399 25.0557 205.251 24.7256 206.33 24.7256C207.101 24.7256 207.707 24.8962 208.136 25.2226C208.096 25.1484 208.059 25.0779 208.019 25.0149ZM213.28 23.9393C213.254 23.9134 213.225 23.8837 213.192 23.8577C213.853 24.9667 213.985 26.7098 213.574 29.0724L211.749 39.5351C211.257 42.3464 210.31 44.2861 208.933 45.306C207.483 46.3816 205.089 46.9305 201.825 46.9305C198.635 46.9305 196.454 46.4076 195.36 45.3839C195.485 45.5916 195.628 45.7733 195.79 45.9365C196.869 47.0121 199.065 47.561 202.336 47.561C205.607 47.561 207.997 47.0121 209.443 45.9365C210.82 44.9166 211.767 42.9806 212.259 40.1656L214.084 29.7029C214.576 26.9027 214.3 24.9667 213.28 23.9393ZM200.449 44.0191C200.177 43.4331 200.177 42.5281 200.43 41.0742L202.574 28.7979C202.853 27.1994 203.21 26.2685 203.775 25.6899C204.392 25.0557 205.243 24.7256 206.323 24.7256C207.094 24.7256 207.699 24.8962 208.129 25.2226C208.096 25.1484 208.059 25.0779 208.019 25.0149C207.615 24.4103 206.873 24.0951 205.809 24.0951C204.737 24.0951 203.878 24.4215 203.268 25.0594C202.703 25.638 202.339 26.5689 202.06 28.1674L199.92 40.4437C199.637 42.0608 199.678 42.9991 200.045 43.5777C200.151 43.7483 200.287 43.8967 200.449 44.0191Z" fill="#808080"/>
<path d="M214.256 22.975C212.979 21.6917 210.552 21.0501 206.962 21.0501C203.393 21.0501 200.739 21.6992 199.006 22.9898C197.269 24.2805 196.128 26.5207 195.57 29.7029L193.745 40.1655C193.183 43.3811 193.539 45.6287 194.817 46.8971C196.095 48.173 198.529 48.8183 202.116 48.8183C205.702 48.8183 208.357 48.1767 210.075 46.8971C211.8 45.625 212.942 43.3811 213.5 40.1655L215.325 29.7029C215.89 26.4984 215.527 24.2583 214.256 22.975ZM206.323 24.7256C205.243 24.7256 204.392 25.052 203.775 25.6899C203.21 26.2685 202.853 27.1994 202.574 28.7979L200.43 41.0742C200.177 42.5281 200.177 43.433 200.449 44.019C200.287 43.9004 200.148 43.7483 200.038 43.5777C199.67 42.9991 199.634 42.0608 199.913 40.4437L202.053 28.1674C202.332 26.5689 202.696 25.638 203.261 25.0594C203.87 24.4252 204.729 24.0951 205.801 24.0951C206.866 24.0951 207.608 24.4103 208.012 25.0149C208.056 25.0779 208.092 25.1484 208.122 25.2226C207.699 24.8962 207.094 24.7256 206.323 24.7256ZM207.431 28.7979L205.287 41.0742C205.071 42.313 204.803 43.0955 204.476 43.4071C204.16 43.7223 203.654 43.8855 202.975 43.8855C202.295 43.8855 201.851 43.7223 201.646 43.4071C201.447 43.0918 201.451 42.313 201.671 41.0742L203.815 28.7979C204.028 27.5703 204.289 26.7988 204.605 26.4762C204.917 26.1498 205.416 25.9866 206.095 25.9866C206.782 25.9866 207.222 26.1498 207.435 26.465C207.648 26.7766 207.648 27.5554 207.431 28.7979ZM214.084 29.7029L212.259 40.1655C211.767 42.9769 210.82 44.9166 209.443 45.9365C207.997 47.0121 205.607 47.561 202.336 47.561C199.065 47.561 196.866 47.0121 195.79 45.9365C195.628 45.7733 195.485 45.5916 195.36 45.3839C196.458 46.4113 198.635 46.9305 201.825 46.9305C205.089 46.9305 207.479 46.3816 208.933 45.306C210.31 44.2861 211.257 42.3464 211.749 39.535L213.574 29.0724C213.985 26.7061 213.853 24.963 213.192 23.8577C213.221 23.8837 213.254 23.9133 213.28 23.9393C214.3 24.9667 214.576 26.9027 214.084 29.7029Z" fill="white"/>
<path fill-rule="evenodd" clip-rule="evenodd" d="M18.7224 99.5362C5.98303 92.7079 1.44003 75.4135 1.13747 74.2087C-2.07334 63.1147 2.3387 54.442 4.23086 51.4202C-0.045701 43.4657 1.32713 37.3477 2.09935 35.1108C1.08779 32.6503 -0.140535 28.9457 0.690392 27.0071C1.26843 25.6532 1.95033 24.0639 3.71153 23.0593C3.55799 21.6269 3.86507 19.9669 5.31919 18.6954C7.37393 16.8981 11.664 15.3911 14.2065 14.9634C14.9832 13.5036 16.8528 11.6474 21.3326 10.5799L21.9287 10.3837C22.4751 8.63348 23.8299 6.40448 26.6433 5.09768C27.5374 4.6817 27.5781 4.37953 27.3387 3.9714L27.3658 4.01457L31.7914 1.77771C31.4753 1.3068 31.0599 1.10273 31.0147 1.07919L31.0915 1.1145C31.2179 1.16944 31.376 1.23616 31.5521 1.34211C32.2882 1.77771 32.9204 2.27218 33.4307 2.81373C33.9907 3.4063 34.3971 4.03812 34.641 4.69348C34.7448 4.64246 34.8577 4.59144 34.9797 4.53258C35.1287 4.46194 35.2461 4.40308 35.3319 4.36383C37.2692 3.48479 38.7956 2.84905 40.2723 2.29965C44.3366 0.792711 47.9855 0.0392431 51.4221 0H51.7066C55.1161 0 58.3585 0.674982 61.488 1.32642C63.8318 1.81303 66.0491 2.2761 68.2799 2.46054L68.6231 6.844L65.2633 7.52683C66.1394 7.6681 67.0019 7.829 67.8509 7.99382C69.1289 8.23713 70.3392 8.46866 71.5495 8.60994L71.1837 10.9802C72.0959 11.612 72.8455 12.3694 73.3874 13.1072C74.1551 14.1511 74.6699 15.2263 75.1622 16.2663C75.5551 17.0865 75.9254 17.8635 76.386 18.5384C77.962 20.8499 81.0374 22.6158 85.5307 23.7813L84.6862 27.8391C84.7133 28.2668 84.7675 28.8633 84.8669 29.6874L84.8759 29.7738C85.0159 30.955 85.2778 32.1283 85.6617 33.2664C85.9552 34.1376 86.1629 34.6948 86.5648 35.0598C87.3506 35.774 87.9286 36.5471 88.4344 37.2339C88.6286 37.4968 88.8273 37.7636 89.035 38.0227L93 42.932L86.8719 41.5781C86.8042 41.9509 86.7861 42.461 86.8313 42.8731L86.8493 43.0418L86.8403 43.2184C86.8132 43.654 86.0049 53.924 70.3979 57.0516C61.9667 58.743 51.5846 62.322 44.9508 64.7825L45.854 64.9827L45.7907 69.3073C35.4674 71.3715 25.4692 91.0009 22.4887 98.3903L21.4365 101L18.7224 99.5362Z" fill="white"/>
<path fill-rule="evenodd" clip-rule="evenodd" d="M71.2005 10.8076C69.2451 10.58 67.2039 10.9489 65.5105 11.8358C67.6962 11.251 69.9903 12.6246 71.2231 14.2963C72.4514 15.972 73.0114 17.9577 74.1765 19.6648C76.4074 22.9337 80.5981 24.8174 84.7889 25.9044C83.9308 25.8534 83.0638 25.9711 82.2645 26.238C81.8671 26.3714 82.278 29.5894 82.3232 29.9896C82.4767 31.3082 82.7703 32.6111 83.1993 33.8825C83.538 34.8872 83.8721 35.8251 84.7121 36.5903C85.6063 37.3987 86.1978 38.372 86.9339 39.2863C83.7231 38.576 84.2786 43.0851 84.2786 43.0851C84.2786 43.0851 83.7276 52.0796 69.8141 54.8698C55.9051 57.66 37.1822 65.3281 37.1822 65.3281L45.207 67.1215C31.2483 69.9117 20.0624 97.6369 20.0624 97.6369C7.91915 91.1304 3.62452 73.6947 3.62452 73.6947C-0.0920663 60.9093 7.12887 51.5106 7.12887 51.5106C1.42528 41.8803 4.81672 35.0834 4.81672 35.0834C4.81672 35.0834 2.36459 29.4755 3.09165 27.7842C3.81419 26.0928 4.36965 24.786 6.70889 24.3975C6.70889 24.3975 5.39476 21.7878 7.1379 20.2652C8.88104 18.7426 13.0537 17.3377 15.0588 17.0983L16.2284 16.9531C16.2284 16.9531 16.0613 14.1119 22.1262 12.703L24.19 12.0202C24.19 12.0202 24.3977 8.66885 27.8524 7.06381C31.2935 5.46269 29.591 2.91581 29.5774 2.90011C29.6452 2.99822 30.0019 3.11987 30.1103 3.18659C30.6071 3.47698 31.0677 3.82625 31.447 4.23045C31.9121 4.72492 32.2644 5.30964 32.3366 5.95323C32.3773 6.29072 32.2012 6.69884 32.3095 7.02849C32.7386 8.34313 35.8816 6.62428 36.5048 6.34173C38.0673 5.63143 39.6479 4.95253 41.2646 4.35211C44.4889 3.15519 47.9165 2.27222 51.4434 2.23298C57.0612 2.17019 62.4306 4.2226 68.0258 4.68175C66.0569 5.08203 64.0835 5.48231 62.1145 5.88259C60.8862 6.12982 59.283 6.66745 59.5359 8.00564C59.7256 9.01026 60.4843 9.3556 61.5636 9.387C64.8286 9.48118 67.9536 10.4309 71.2005 10.8076Z" fill="#1A002E"/>
<path fill-rule="evenodd" clip-rule="evenodd" d="M71.2005 10.8076C69.2451 10.58 67.2039 10.9489 65.5105 11.8358C67.6962 11.251 69.9903 12.6246 71.2231 14.2963C72.4514 15.972 73.0114 17.9577 74.1765 19.6648C76.4074 22.9337 80.5981 24.8174 84.7889 25.9044C83.9308 25.8534 83.0638 25.9711 82.2645 26.238C81.8671 26.3714 82.278 29.5894 82.3232 29.9896C82.4767 31.3082 82.7703 32.6111 83.1993 33.8825C83.538 34.8872 83.8721 35.8251 84.7121 36.5903C85.6063 37.3987 86.1978 38.372 86.9339 39.2863C83.7231 38.576 84.2786 43.0851 84.2786 43.0851C84.2786 43.0851 83.7276 52.0796 69.8141 54.8698C55.9051 57.66 37.1822 65.3281 37.1822 65.3281L45.207 67.1215C31.2483 69.9117 20.0624 97.6369 20.0624 97.6369C7.91915 91.1304 3.62452 73.6947 3.62452 73.6947C-0.0920663 60.9093 7.12887 51.5106 7.12887 51.5106C1.42528 41.8803 4.81672 35.0834 4.81672 35.0834C4.81672 35.0834 2.36459 29.4755 3.09165 27.7842C3.81419 26.0928 4.36965 24.786 6.70889 24.3975C6.70889 24.3975 5.39476 21.7878 7.1379 20.2652C8.88104 18.7426 13.0537 17.3377 15.0588 17.0983L16.2284 16.9531C16.2284 16.9531 16.0613 14.1119 22.1262 12.703L24.19 12.0202C24.19 12.0202 24.3977 8.66885 27.8524 7.06381C31.2935 5.46269 29.591 2.91581 29.5774 2.90011C29.6452 2.99822 30.0019 3.11987 30.1103 3.18659C30.6071 3.47698 31.0677 3.82625 31.447 4.23045C31.9121 4.72492 32.2644 5.30964 32.3366 5.95323C32.3773 6.29072 32.2012 6.69884 32.3095 7.02849C32.7386 8.34313 35.8816 6.62428 36.5048 6.34173C38.0673 5.63143 39.6479 4.95253 41.2646 4.35211C44.4889 3.15519 47.9165 2.27222 51.4434 2.23298C57.0612 2.17019 62.4306 4.2226 68.0258 4.68175C66.0569 5.08203 64.0835 5.48231 62.1145 5.88259C60.8862 6.12982 59.283 6.66745 59.5359 8.00564C59.7256 9.01026 60.4843 9.3556 61.5636 9.387C64.8286 9.48118 67.9536 10.4309 71.2005 10.8076Z" fill="#1A002E"/>
<path fill-rule="evenodd" clip-rule="evenodd" d="M72.6004 30.1937C72.6004 30.1937 88.5641 47.4567 54.3877 55.6781C54.3877 55.6781 28.489 61.9453 21.0378 76.4378C21.0378 76.4378 24.3479 69.7586 36.4144 68.0083C36.4144 68.0083 21.1597 75.9197 19.1501 91.4404C19.1501 91.4404 -0.00632715 75.9237 9.21515 54.752C9.21515 54.752 5.9637 68.9345 14.8329 81.3706C14.8329 81.3706 10.6919 71.3008 15.0678 63.5935C15.0678 63.5935 13.8846 72.227 18.8521 78.3921C16.7838 57.5147 45.9927 56.8162 51.7279 43.9641C51.7279 43.9641 52.613 46.9976 49.068 51.7224C61.6854 48.6929 76.8724 44.0897 72.6004 30.1937Z" fill="#F2EBDE"/>
<path fill-rule="evenodd" clip-rule="evenodd" d="M52.9924 28.204C48.8377 27.6664 46.0108 28.3728 41.6665 30.5155C36.4641 25.4295 27.3601 25.9946 27.3601 25.9946C31.1444 27.1759 32.8288 29.6443 32.8288 29.6443C37.706 31.4416 41.9961 36.657 41.9961 36.657C33.3617 29.9268 24.6144 29.3107 24.6144 29.3107C30.8825 30.6999 33.1856 32.8543 33.1856 32.8543L32.5353 34.2435C38.0944 37.7872 38.7447 40.5656 38.7447 40.5656C33.6598 34.0356 22.0404 31.7987 22.0404 31.7987C27.3014 33.2625 31.5012 36.1665 31.5012 36.1665C28.4846 40.1732 23.1964 37.3477 21.7784 36.0134C20.3604 34.6791 18.3463 34.1651 18.3463 34.1651L11.7215 33.392L10.9538 30.7195C10.1861 27.533 9.24228 25.3236 13.6137 25.7867C17.9896 26.2497 19.5837 23.5263 19.5837 23.5263C17.5741 23.9893 16.391 23.1142 16.391 23.1142C16.391 23.1142 15.3297 22.086 12.015 22.1881C8.70489 22.2901 9.23776 21.623 9.23776 21.623C13.2614 19.2056 21.0062 19.0015 21.0062 19.0015C18.0483 17.9734 18.9921 17.1532 18.9921 17.1532C21.5933 14.0176 27.8614 14.6887 27.8614 14.6887C25.5537 15.4069 25.1428 18.4403 25.1428 18.4403C33.4791 9.6028 50.2151 17.8242 50.2151 17.8242C49.1493 18.0793 46.9004 22.0389 46.9004 22.0389C51.1002 23.9148 52.9924 28.204 52.9924 28.204ZM41.111 21.8035C39.553 20.324 37.5299 19.6922 35.5655 19.496C33.3798 19.2801 31.1805 20.5516 30.6432 17.9969C30.8193 20.5163 26.7414 21.9016 26.7414 21.9016C31.0586 20.7204 35.1997 22.5687 35.1997 22.5687C36.9112 21.2345 41.111 21.8035 41.111 21.8035Z" fill="#F2EBDE"/>
<path fill-rule="evenodd" clip-rule="evenodd" d="M7.31851 26.3282L9.50872 34.1376C9.50872 34.1376 7.2598 35.2168 6.96627 36.606L6.10824 33.753L7.05658 33.3685L5.94567 33.1252L5.20958 30.9158L6.73144 30.1074L5.06507 30.2486C5.05604 30.2486 4.03544 27.69 7.31851 26.3282Z" fill="#F2EBDE"/>
<path fill-rule="evenodd" clip-rule="evenodd" d="M27.7349 44.9491C27.7349 44.9491 28.9317 46.3108 27.6266 47.6372C26.326 48.9676 26.9402 51.0867 27.3511 51.6793C27.3511 51.6793 23.3184 51.7028 22.6817 49.9447C22.6817 49.9447 20.8934 51.7695 24.5919 57.0791C24.5919 57.0791 16.8742 57.0046 12.6338 53.4845C12.6338 53.4845 12.1551 55.321 13.0176 56.3453C7.49015 52.4288 4.04451 41.3819 12.1235 41.0483C19.4663 40.7462 20.2837 45.5652 27.7349 44.9491Z" fill="#F2EBDE"/>
<path fill-rule="evenodd" clip-rule="evenodd" d="M47.8126 36.6138C47.8126 36.6138 57.3593 43.1086 48.5262 50.2822C49.768 47.2487 50.5944 45.1924 48.5849 42.1628C48.5849 42.1628 42.1994 49.8702 28.9542 51.5144C38.0402 47.8099 42.7593 42.8849 47.8126 36.6138Z" fill="#F2EBDE"/>
<path fill-rule="evenodd" clip-rule="evenodd" d="M56.1851 18.0754C56.1851 18.0754 55.0697 20.3397 58.9127 22.4942C58.9127 22.4942 61.0217 20.4457 64.4944 21.6308C64.4944 21.6308 60.8997 23.0318 61.0217 24.0011C61.0217 24.0011 63.379 22.816 63.8757 23.2477C63.8757 23.2477 61.7668 25.4021 62.0151 25.9437C62.0151 25.9437 64.3725 26.0496 64.9911 25.9437C65.6098 25.8377 67.8452 24.3268 67.7187 23.1417C67.5968 21.9566 67.222 19.1546 63.6273 18.8289L64.7428 18.0754C64.7428 18.0754 60.6513 15.4893 56.1851 18.0754Z" fill="#F2EBDE"/>
<path fill-rule="evenodd" clip-rule="evenodd" d="M37.0422 21.4582C37.0422 22.4746 36.0938 23.2947 34.9287 23.2947C33.7636 23.2947 32.8153 22.4706 32.8153 21.4582C32.8153 20.4418 33.7636 19.6216 34.9287 19.6216C36.0938 19.6216 37.0422 20.4457 37.0422 21.4582Z" fill="#F2EBDE"/>
<path fill-rule="evenodd" clip-rule="evenodd" d="M7.63463 36.8296C7.63463 36.8296 9.24229 34.1179 13.0266 34.4868C16.8109 34.8557 19.8818 35.6406 19.8818 35.6406C19.8818 35.6406 21.5843 37.693 22.8623 37.9795L19.5069 36.9945C19.5069 36.9945 19.1592 39.4746 19.3489 39.6826C19.5386 39.8867 18.0257 38.2071 18.0573 36.6138C18.0573 36.6138 14.5801 35.358 9.51325 36.6138H10.1455L10.6377 38.4425C10.6377 38.4425 9.15198 37.9402 9.00747 36.9945C9.00295 36.9945 7.58496 38.2385 7.63463 36.8296Z" fill="#F2EBDE"/>
<path fill-rule="evenodd" clip-rule="evenodd" d="M19.3985 40.5617L18.2515 42.2766L19.3985 43.3715V40.5617Z" fill="#F2EBDE"/>
<path fill-rule="evenodd" clip-rule="evenodd" d="M10.6512 39.9299L9.50419 41.6448L10.6512 42.7397V39.9299Z" fill="#F2EBDE"/>
<path d="M68.8206 33.8158C68.7755 33.2507 68.7348 32.6895 68.6806 32.1244C68.5768 30.9981 68.4639 29.8719 68.3194 28.7417C68.1794 29.8679 68.0755 30.9981 67.9762 32.1244C67.9265 32.6895 67.8904 33.2507 67.8452 33.8158C67.8091 34.3809 67.7729 34.9342 67.6691 35.4405C67.5652 35.9506 67.3801 36.4098 67.0775 36.763C66.9285 36.9396 66.7298 37.1162 66.5085 37.3006L65.8085 37.8775C65.4879 38.1404 65.1718 38.4072 64.8557 38.6702C64.8828 38.3641 64.9008 38.058 64.9099 37.7519C64.9279 37.226 64.9324 36.6962 64.9053 36.1704C64.8782 35.6445 64.8376 35.1187 64.7699 34.5928L63.9931 28.3375L62.8235 34.5536C62.6745 35.3581 62.4893 36.1547 62.259 36.9435C62.0332 37.7323 61.7713 38.5171 61.4687 39.2863C61.1797 40.0437 60.823 40.7618 60.3623 41.378C60.1817 41.6134 59.9875 41.8293 59.7707 42.0215C59.7843 41.7979 59.7978 41.5781 59.8024 41.3544C59.8114 41.0012 59.8024 40.648 59.7888 40.2988C59.7707 39.9456 59.7436 39.5963 59.6985 39.2471L59.5133 37.7676L58.6824 39.0037C58.3392 39.51 58.0231 40.028 57.7296 40.5538C57.5715 40.8403 57.418 41.1307 57.278 41.4211C57.2509 41.2759 57.2283 41.1307 57.2057 40.9855C57.138 40.5656 57.1109 40.1379 57.0928 39.7101C56.9935 40.13 56.9348 40.5617 56.8986 40.9934C56.8715 41.425 56.8715 41.8646 56.9031 42.3002L56.9573 43.0654L57.4315 42.3669C57.7657 41.8763 58.1134 41.3897 58.4747 40.9188C58.4792 40.9149 58.4792 40.911 58.4837 40.907C58.4702 41.0287 58.4566 41.1503 58.4386 41.272C58.3573 41.9274 58.2218 42.5788 58.0637 43.2185L57.7973 44.2937L59.0663 43.9837C59.6353 43.8463 60.1681 43.603 60.6197 43.2969C61.0758 42.9908 61.4552 42.6259 61.7803 42.2492C62.1055 41.8685 62.3764 41.4682 62.6113 41.064C62.6474 41.0051 62.679 40.9463 62.7106 40.8874L62.3719 43.0968L64.2776 41.3112C65.1627 40.4832 66.0433 39.6552 66.9149 38.8193C67.1362 38.6074 67.3484 38.4072 67.5742 38.1875C67.8 37.9638 68.0394 37.7166 68.2426 37.4222C68.4458 37.1279 68.5948 36.8101 68.6852 36.4961C68.78 36.1822 68.8297 35.8682 68.8568 35.5621C68.9155 34.9539 68.8613 34.3731 68.8206 33.8158Z" fill="#F2EBDE"/>
<path d="M61.0804 11.2118C60.8184 11.3452 60.5475 11.4551 60.2675 11.5297C59.992 11.6121 59.703 11.6592 59.4185 11.6827C58.845 11.7416 58.267 11.6906 57.7115 11.5925C57.4315 11.5415 57.1606 11.4708 56.8896 11.3923C56.6187 11.3138 56.3477 11.2157 56.0813 11.1176C55.5484 10.9136 55.02 10.6742 54.4781 10.423C53.9362 10.1758 53.3853 9.90895 52.7937 9.67741L51.9041 9.336L51.6783 9.25359L51.4479 9.18295L50.9918 9.03775C50.3867 8.82976 49.7545 8.69633 49.1313 8.53544C48.8152 8.46872 48.4991 8.40986 48.1784 8.35099C48.0204 8.32352 47.8623 8.28428 47.6997 8.26466L47.2165 8.20187C44.647 7.84083 41.9916 7.97034 39.4627 8.4805L38.5189 8.68848C38.2073 8.76305 37.8957 8.85331 37.5886 8.93572L37.1235 9.06522L36.6674 9.21434C36.6177 9.23004 36.568 9.24966 36.5139 9.26536C36.7848 9.10054 37.0648 8.94356 37.3538 8.80229C38.966 7.97818 40.7994 7.48765 42.6916 7.17762C44.5838 6.86368 46.5346 6.74203 48.4945 6.61645C49.47 6.55366 50.468 6.50657 51.4525 6.32997C52.4324 6.1573 53.4169 5.82766 54.171 5.23901L54.0265 5.08597C53.2633 5.5922 52.324 5.83943 51.3757 5.94147C50.4228 6.05135 49.4519 6.0435 48.4674 6.05135C46.503 6.06704 44.5205 6.07489 42.5336 6.28681C42.0368 6.33782 41.5401 6.40846 41.0433 6.48302C40.5466 6.56936 40.0543 6.65962 39.5621 6.78519C38.5776 7.02065 37.6202 7.33852 36.6945 7.74273C35.7732 8.14693 34.8972 8.64924 34.1024 9.25359C33.3121 9.85793 32.6166 10.58 32.0657 11.3845L30.9006 13.0837C30.8193 13.0248 30.7425 12.9621 30.6658 12.8953C30.5077 12.7462 30.3677 12.5893 30.2367 12.4244C29.9748 12.0948 29.7535 11.7416 29.6 11.4002C29.5232 11.2314 29.469 11.0588 29.4555 10.9214C29.4465 10.8547 29.451 10.7958 29.46 10.7644C29.4645 10.7487 29.469 10.7409 29.4736 10.737C29.4781 10.7331 29.4736 10.7409 29.4781 10.7331L29.5142 10.6703C29.7129 10.3288 29.9116 9.95996 30.1419 9.58323C30.3677 9.20649 30.6432 8.84153 30.8916 8.44125C31.018 8.24504 31.1399 8.02528 31.2348 7.80159C31.3296 7.5779 31.3973 7.35029 31.447 7.11484C31.5464 6.65177 31.5328 6.16123 31.3838 5.70601C31.307 5.4784 31.1896 5.26256 31.0406 5.07027C30.8915 4.87798 30.7064 4.71316 30.5032 4.57581L30.4083 4.65822C30.7154 4.99178 30.887 5.38421 30.9186 5.78057C30.9593 6.17692 30.869 6.57328 30.7154 6.94217C30.6341 7.12661 30.5393 7.30713 30.4264 7.47587C30.318 7.64854 30.1916 7.80551 30.0516 7.97426C29.7716 8.30783 29.46 8.64139 29.1349 8.98673C28.8097 9.33207 28.4755 9.69703 28.2497 10.1366L28.2091 10.219C28.191 10.2582 28.1639 10.3171 28.1459 10.3642C28.1098 10.4662 28.0962 10.5643 28.0872 10.6546C28.0736 10.839 28.1052 10.9999 28.1459 11.1412C28.2317 11.4277 28.3672 11.6631 28.5207 11.875C28.8323 12.2989 29.2162 12.6442 29.6632 12.9228C29.889 13.0602 30.1284 13.1818 30.3903 13.2682C30.4942 13.3035 30.6025 13.3309 30.7154 13.3506L30.5077 13.6567L31.0902 13.378C31.1354 13.3741 31.1806 13.3702 31.2212 13.3584V13.3113L33.2579 12.3342C33.7772 12.0869 34.274 11.8083 34.8159 11.6042L35.2223 11.4512L35.421 11.3688L35.6287 11.2982L36.4506 11.0156C36.7261 10.9253 37.0106 10.8547 37.2906 10.7762L37.7106 10.6585L38.1396 10.5682C38.4286 10.5094 38.7086 10.4427 38.9976 10.3916L39.8692 10.2582L40.0859 10.2229L40.3072 10.1993L40.7453 10.1562C41.0388 10.1287 41.3278 10.0934 41.6213 10.0855C41.9149 10.0738 42.2084 10.0581 42.5019 10.0384L43.3825 10.0306C44.5567 10.0306 45.7308 10.0777 46.8959 10.215C47.483 10.2621 48.0565 10.3681 48.6391 10.4427C49.2126 10.5565 49.7951 10.6467 50.3596 10.788C50.9331 10.9096 51.4931 11.0745 52.0576 11.2314C52.6176 11.3963 53.1866 11.5886 53.7736 11.7808C54.9478 12.1576 56.2258 12.5343 57.5896 12.5539C58.2624 12.5579 58.9398 12.4794 59.5721 12.291C59.8882 12.1929 60.1907 12.0712 60.4707 11.9143C60.7507 11.7573 61.0036 11.5729 61.2158 11.3609L61.0804 11.2118Z" fill="#F2EBDE"/>
</svg>
