<svg width="41" height="41" viewBox="0 0 41 41" fill="none" xmlns="http://www.w3.org/2000/svg">
<path fill-rule="evenodd" clip-rule="evenodd" d="M34.0965 6.84715C30.5005 3.24692 25.7181 1.26334 20.6232 1.26123C10.1246 1.26123 1.58037 9.80527 1.57615 20.3066C1.57474 23.6636 2.45169 26.9405 4.11855 29.8289L1.41638 39.6987L11.5135 37.05C14.2957 38.5677 17.4279 39.3675 20.6154 39.3684H20.6234C31.1208 39.3684 39.666 30.8237 39.67 20.3219C39.6721 15.2324 37.6927 10.4471 34.0965 6.84715ZM20.6232 36.1518H20.6166C17.776 36.1506 14.9901 35.3872 12.5591 33.9451L11.9813 33.6018L5.98952 35.1737L7.58881 29.3318L7.21227 28.7329C5.62752 26.2123 4.79069 23.299 4.7921 20.3078C4.79538 11.5793 11.8973 4.47812 20.6295 4.47812C24.858 4.47953 28.8329 6.12832 31.8218 9.12069C34.8106 12.1131 36.4557 16.0905 36.4542 20.3207C36.4505 29.0498 29.349 36.1518 20.6232 36.1518V36.1518ZM29.3068 24.2951C28.831 24.0567 26.4911 22.9058 26.0547 22.7467C25.6188 22.5879 25.3012 22.5088 24.9842 22.9851C24.6668 23.4613 23.7549 24.5335 23.4771 24.8509C23.1994 25.1685 22.9221 25.2084 22.446 24.9701C21.97 24.7319 20.4367 24.2292 18.6187 22.6078C17.2041 21.3459 16.249 19.7874 15.9712 19.3112C15.6939 18.8345 15.9689 18.6017 16.18 18.3399C16.6952 17.7002 17.2111 17.0294 17.3697 16.712C17.5285 16.3944 17.449 16.1163 17.3298 15.8782C17.2111 15.6401 16.2593 13.2976 15.8628 12.3444C15.4762 11.4168 15.0842 11.542 14.7919 11.5275C14.5146 11.5137 14.1971 11.5108 13.8797 11.5108C13.5625 11.5108 13.0469 11.6298 12.6105 12.1065C12.1744 12.583 10.9451 13.7342 10.9451 16.0767C10.9451 18.4192 12.6504 20.6822 12.8883 20.9999C13.1262 21.3175 16.2443 26.1245 21.0182 28.1858C22.1537 28.6766 23.0401 28.9691 23.7314 29.1885C24.8716 29.5507 25.9088 29.4996 26.729 29.3771C27.6435 29.2403 29.5445 28.2257 29.9414 27.1141C30.3379 26.0023 30.3379 25.0496 30.2187 24.8509C30.1 24.6524 29.7826 24.5335 29.3068 24.2951V24.2951Z" fill="white"/>
</svg>
